<svg width="27" height="41" viewBox="0 0 27 41" fill="none" xmlns="http://www.w3.org/2000/svg">
<g clip-path="url(#clip0_244_65)">
<path d="M6.75134 41.0002C10.4766 41.0002 13.5 37.9388 13.5 34.1668V27.3335H6.75134C3.02608 27.3335 0.00268555 30.3948 0.00268555 34.1668C0.00268555 37.9388 3.02608 41.0002 6.75134 41.0002Z" fill="#0ACF83"/>
<path d="M0.00268555 20.4998C0.00268555 16.7278 3.02608 13.6665 6.75134 13.6665H13.5V27.3332H6.75134C3.02608 27.3332 0.00268555 24.2718 0.00268555 20.4998Z" fill="#A259FF"/>
<path d="M0.00268555 6.83333C0.00268555 3.06133 3.02608 0 6.75134 0H13.5V13.6667H6.75134C3.02608 13.6667 0.00268555 10.6053 0.00268555 6.83333Z" fill="#F24E1E"/>
<path d="M13.5 0H20.2487C23.9739 0 26.9973 3.06133 26.9973 6.83333C26.9973 10.6053 23.9739 13.6667 20.2487 13.6667H13.5V0Z" fill="#FF7262"/>
<path d="M26.9973 20.4998C26.9973 24.2718 23.9739 27.3332 20.2487 27.3332C16.5234 27.3332 13.5 24.2718 13.5 20.4998C13.5 16.7278 16.5234 13.6665 20.2487 13.6665C23.9739 13.6665 26.9973 16.7278 26.9973 20.4998Z" fill="#1ABCFE"/>
</g>
<defs>
<clipPath id="clip0_244_65">
<rect width="27" height="41" fill="white"/>
</clipPath>
</defs>
</svg>
