<svg width="50" height="50" viewBox="0 0 50 50" fill="none" xmlns="http://www.w3.org/2000/svg">
<path d="M42.1965 6.25H24.1426C24.1426 10.75 27.7848 14.3938 32.2859 14.3938H35.6062V17.607C35.6062 22.107 39.25 25.7508 43.75 25.7508V7.80352C43.7497 7.39159 43.5859 6.99663 43.2946 6.70536C43.0034 6.41408 42.6084 6.25031 42.1965 6.25Z" fill="#2684FF"/>
<path d="M33.2504 15.2499H15.1961C15.1961 19.7495 18.8387 23.3933 23.3383 23.3933H26.6602V26.6065C26.6602 31.1065 30.3039 34.7503 34.8039 34.7503V16.803C34.8033 16.3912 34.6394 15.9964 34.3482 15.7052C34.057 15.414 33.6622 15.2505 33.2504 15.2499Z" fill="url(#paint0_linear_244_60)"/>
<path d="M24.3043 24.249H6.25C6.25 28.7506 9.89219 32.3928 14.3938 32.3928H17.7141V35.6076C17.7141 40.1076 21.3578 43.7498 25.8574 43.7498V25.8041C25.857 25.3922 25.6933 24.9972 25.4022 24.7058C25.111 24.4144 24.7162 24.2499 24.3043 24.249Z" fill="url(#paint1_linear_244_60)"/>
<defs>
<linearGradient id="paint0_linear_244_60" x1="34.4281" y1="15.2702" x2="26.7469" y2="23.1905" gradientUnits="userSpaceOnUse">
<stop offset="0.176" stop-color="#0052CC"/>
<stop offset="1" stop-color="#2684FF"/>
</linearGradient>
<linearGradient id="paint1_linear_244_60" x1="26.0016" y1="24.3186" x2="17.1203" y2="32.9592" gradientUnits="userSpaceOnUse">
<stop offset="0.176" stop-color="#0052CC"/>
<stop offset="1" stop-color="#2684FF"/>
</linearGradient>
</defs>
</svg>
