<svg width="40" height="36" viewBox="0 0 40 36" fill="none" xmlns="http://www.w3.org/2000/svg">
<g clip-path="url(#clip0_244_72)">
<path d="M8.70968 1.18468L19.9597 0L31.2097 1.18468L39.9194 12.8307L19.9597 35.9821L0 12.8307L8.70968 1.18468Z" fill="#FDB300"/>
<path d="M8.08467 12.8306L19.9597 35.982L0 12.8306H8.08467Z" fill="#EA6C00"/>
<path d="M31.8346 12.8306L19.9596 35.982L39.9193 12.8306H31.8346Z" fill="#EA6C00"/>
<path d="M8.08466 12.8306H31.8347L19.9597 35.982L8.08466 12.8306Z" fill="#FDAD00"/>
<path d="M19.9597 0L8.70963 1.18466L8.08466 12.8307L19.9597 0Z" fill="#FDD231"/>
<path d="M19.9596 0L31.2097 1.18466L31.8347 12.8307L19.9596 0Z" fill="#FDD231"/>
<path d="M39.9194 12.8306L31.2096 1.18457L31.8347 12.8306H39.9194Z" fill="#FDAD00"/>
<path d="M0 12.8306L8.70964 1.18457L8.08467 12.8306H0Z" fill="#FDAD00"/>
<path d="M19.9597 0L8.08466 12.8307H31.8347L19.9597 0Z" fill="#FEEEB7"/>
</g>
<defs>
<clipPath id="clip0_244_72">
<rect width="40" height="36" fill="white"/>
</clipPath>
</defs>
</svg>
