<svg width="42" height="42" viewBox="0 0 42 42" fill="none" xmlns="http://www.w3.org/2000/svg">
<g clip-path="url(#clip0_244_87)">
<path fill-rule="evenodd" clip-rule="evenodd" d="M15.4103 0C13.0932 0.00171254 11.218 1.88208 11.2197 4.19914C11.218 6.51621 13.095 8.39657 15.412 8.39829H19.6043V4.20086C19.606 1.88379 17.7291 0.00342508 15.4103 0C15.412 0 15.412 0 15.4103 0ZM15.4103 11.2H4.23429C1.91723 11.2017 0.0402843 13.0821 0.0419969 15.3991C0.0385718 17.7162 1.91551 19.5966 4.23258 19.6H15.4103C17.7274 19.5983 19.6043 17.7179 19.6026 15.4009C19.6043 13.0821 17.7274 11.2017 15.4103 11.2Z" fill="#36C5F0"/>
<path fill-rule="evenodd" clip-rule="evenodd" d="M41.9581 15.3991C41.9598 13.0821 40.0828 11.2017 37.7658 11.2C35.4487 11.2017 33.5718 13.0821 33.5735 15.3991V19.6H37.7658C40.0828 19.5983 41.9598 17.7179 41.9581 15.3991ZM30.7803 15.3991V4.19914C30.7821 1.88379 28.9068 0.00342508 26.5898 0C24.2727 0.00171254 22.3958 1.88208 22.3975 4.19914V15.3991C22.394 17.7162 24.271 19.5966 26.588 19.6C28.9051 19.5983 30.7821 17.7179 30.7803 15.3991Z" fill="#2EB67D"/>
<path fill-rule="evenodd" clip-rule="evenodd" d="M26.588 42.0001C28.9051 41.9984 30.7821 40.1181 30.7803 37.801C30.7821 35.4839 28.9051 33.6036 26.588 33.6019H22.3958V37.801C22.394 40.1164 24.271 41.9967 26.588 42.0001ZM26.588 30.7984H37.7658C40.0828 30.7967 41.9598 28.9164 41.9581 26.5993C41.9615 24.2822 40.0846 22.4019 37.7675 22.3984H26.5898C24.2727 22.4002 22.3958 24.2805 22.3975 26.5976C22.3958 28.9164 24.271 30.7967 26.588 30.7984Z" fill="#ECB22E"/>
<path fill-rule="evenodd" clip-rule="evenodd" d="M0.0419934 26.599C0.0402808 28.9161 1.91722 30.7965 4.23429 30.7982C6.55135 30.7965 8.42829 28.9161 8.42658 26.599V22.3999H4.23429C1.91722 22.4016 0.0402808 24.282 0.0419934 26.599ZM11.2197 26.599V37.799C11.2163 40.1161 13.0932 41.9965 15.4103 41.9999C17.7274 41.9982 19.6043 40.1178 19.6026 37.8008V26.6025C19.606 24.2854 17.7291 22.405 15.412 22.4016C13.0932 22.4016 11.218 24.282 11.2197 26.599Z" fill="#E01E5A"/>
</g>
<defs>
<clipPath id="clip0_244_87">
<rect width="42" height="42" fill="white"/>
</clipPath>
</defs>
</svg>
