<svg width="20" height="16" viewBox="0 0 20 16" fill="none" xmlns="http://www.w3.org/2000/svg">
<path d="M18.4375 2.40625C18.4688 2.53125 19.0938 5.65625 17.125 8.53125C15.8125 10.4688 13.6875 11.7812 10.7812 12.5C10.3438 12.625 10.0312 13 10.0312 13.4688V15H13.0312C13.3125 15 13.5 15.25 13.5 15.5C13.5 15.7812 13.2812 16 13.0312 16H6.0625C5.78125 16 5.53125 15.7812 5.53125 15.5C5.53125 15.25 5.78125 15 6.0625 15H9.0625L9.03125 13.4688C9.03125 13 8.71875 12.5938 8.28125 12.5C5.375 11.7812 3.25 10.4688 1.96875 8.53125C0 5.65625 0.625 2.53125 0.65625 2.40625C0.71875 2.1875 0.90625 2 1.15625 2H4.5625C4.5625 1.8125 4.5625 1.625 4.5625 1.46875C4.5625 0.65625 5.25 0 6.0625 0H13.0312C13.8438 0 14.5312 0.65625 14.5312 1.46875C14.5312 1.625 14.5312 1.8125 14.5312 2H17.9375C18.1875 2 18.375 2.1875 18.4375 2.40625ZM5.5625 1.5C5.5 4.03125 5.75 10.0312 9.5625 11.7188C13.3438 10.0312 13.5938 4.03125 13.5 1.5C13.5312 1.21875 13.3125 1 13.0312 1H6.0625C5.78125 1 5.5625 1.21875 5.5625 1.5ZM2.78125 8C3.71875 9.375 5.1875 10.4062 7.09375 11.0938C5.1875 8.90625 4.65625 5.4375 4.5625 3H1.59375C1.5 3.875 1.46875 6.03125 2.78125 8ZM16.3125 8C17.625 6.03125 17.5938 3.875 17.5 3H14.5312C14.4375 5.4375 13.9062 8.90625 12 11.0938C13.9062 10.4062 15.375 9.375 16.3125 8Z" fill="#000F10"/>
</svg>
