<svg width="17" height="17" viewBox="0 0 17 17" fill="none" xmlns="http://www.w3.org/2000/svg">
<path d="M9.40625 5.71875C9 5.90625 8.5625 6 8.0625 6C7.59375 6 7.15625 5.90625 6.75 5.71875L4.53125 9.625C5.59375 10.1875 6.78125 10.5 8.0625 10.5C10.8438 10.5 13.2812 9 14.5625 6.75C14.7188 6.53125 15.0312 6.4375 15.25 6.59375C15.5 6.71875 15.5938 7.03125 15.4375 7.25C13.9688 9.8125 11.2188 11.5 8.0625 11.5C6.625 11.5 5.21875 11.1562 4.03125 10.5L1 15.75C0.875 16 0.5625 16.0938 0.34375 15.9375C0.09375 15.8125 0 15.5 0.15625 15.2812L3.1875 9.96875C2.1875 9.25 1.34375 8.34375 0.71875 7.25C0.5625 7.03125 0.65625 6.71875 0.90625 6.59375C1.125 6.4375 1.4375 6.53125 1.59375 6.75C2.125 7.6875 2.8125 8.46875 3.6875 9.09375L5.9375 5.125C5.40625 4.59375 5.0625 3.84375 5.0625 3C5.0625 1.34375 6.40625 0 8.0625 0C9.75 0 11.0938 1.34375 11.0938 3C11.0938 3.84375 10.75 4.59375 10.2188 5.125L11.7188 7.78125C11.875 8 11.7812 8.3125 11.5312 8.4375C11.3125 8.59375 11 8.5 10.8438 8.25L9.40625 5.71875ZM8.0625 1C6.96875 1 6.0625 1.90625 6.0625 3C6.0625 4.125 6.96875 5 8.0625 5C9.1875 5 10.0938 4.125 10.0938 3C10.0938 1.90625 9.1875 1 8.0625 1ZM12.8438 11.75C12.7188 11.5312 12.8125 11.2188 13.0312 11.0938C13.2812 10.9375 13.5938 11.0312 13.7188 11.2812L16 15.2812C16.1562 15.5 16.0625 15.8125 15.8125 15.9375C15.5938 16.0938 15.2812 16 15.1562 15.75L12.8438 11.75Z" fill="white"/>
</svg>
