<svg width="14" height="16" viewBox="0 0 14 16" fill="none" xmlns="http://www.w3.org/2000/svg">
<path d="M8.5 2C8.21875 2 8 1.78125 8 1.5C8 1.25 8.21875 1 8.5 1H13.5C13.75 1 14 1.25 14 1.5V6.5C14 6.78125 13.75 7 13.5 7C13.2188 7 13 6.78125 13 6.5V2.71875L5.84375 9.875C5.65625 10.0625 5.3125 10.0625 5.125 9.875C4.9375 9.6875 4.9375 9.34375 5.125 9.15625L12.2812 2H8.5ZM0 3.5C0 2.6875 0.65625 2 1.5 2H5.5C5.75 2 6 2.25 6 2.5C6 2.78125 5.75 3 5.5 3H1.5C1.21875 3 1 3.25 1 3.5V13.5C1 13.7812 1.21875 14 1.5 14H11.5C11.75 14 12 13.7812 12 13.5V9.5C12 9.25 12.2188 9 12.5 9C12.75 9 13 9.25 13 9.5V13.5C13 14.3438 12.3125 15 11.5 15H1.5C0.65625 15 0 14.3438 0 13.5V3.5Z" fill="black"/>
</svg>
