<svg width="125" height="50" viewBox="0 0 125 50" fill="none" xmlns="http://www.w3.org/2000/svg">
<path d="M35.7601 3.91406L3.90674 14.255L14.2593 46.087L42.2507 36.9956L39.8081 29.4739H30.8508L29.7312 32.9404H25.4558L32.787 10.4271H37.8719L35.7601 3.91406ZM35.3329 15.7456L32.0738 25.7458H38.5851L35.3329 15.7456Z" fill="white"/>
<path d="M73.7236 18.082C73.27 16.2797 71.9093 13.7811 68.3398 13.7811C64.0473 13.7811 62.2626 17.7657 62.2626 21.6818C62.2626 25.6038 64.0473 29.5895 68.3398 29.5895C71.2124 29.5895 73.8134 27.4698 73.8134 24.3704H68.4921V20.6385H77.5022V32.9415H73.9953V31.0106C72.5743 32.6877 70.2143 33.508 68.3398 33.508C61.4464 33.508 58.0292 28.0387 58.0292 21.6818C58.0292 15.3296 61.8999 9.85913 68.3398 9.85913C72.7255 9.85913 75.8698 12.1677 77.5022 16.4686L73.7236 18.082Z" fill="white"/>
<path d="M84.392 21.6818C84.392 25.6038 86.2146 29.5895 90.5874 29.5895C94.9719 29.5895 96.7945 25.6038 96.7945 21.6818C96.7945 17.7657 94.9719 13.7811 90.5874 13.7811C86.2146 13.7811 84.392 17.7657 84.392 21.6818ZM101.115 21.6818C101.115 28.0387 97.1654 33.508 90.5874 33.508C84.0212 33.508 80.0701 28.0387 80.0701 21.6818C80.0701 15.3296 84.0212 9.85913 90.5874 9.85913C97.1654 9.85913 101.115 15.3296 101.115 21.6818Z" fill="white"/>
<path d="M57.643 29.0194H45.5736V23.2008H54.0864V19.4688H45.5736V14.35H56.8244V10.428H41.3344V21.0598L45.1968 32.9415H57.643V29.0194Z" fill="white"/>
<path d="M117.234 10.428V25.6463L107.846 10.428H103.813V32.9415H107.673V17.5048L117.202 32.9415H121.094V10.428H117.234Z" fill="white"/>
<path d="M107.673 38.301H46.9403L47.6891 40.6049H107.673V38.301Z" fill="white"/>
</svg>
