<svg width="63" height="44" viewBox="0 0 63 44" fill="none" xmlns="http://www.w3.org/2000/svg">
<g clip-path="url(#clip0_325_39)">
<path d="M40.8506 26.2693H39.1505L38.9099 27.273H38.8938C38.6533 26.6517 38.1561 26.11 36.9371 26.11C34.403 26.11 33.1841 28.4359 33.1841 30.1086C33.1841 31.3671 33.8577 32.8008 35.638 32.8008C36.5682 32.8008 37.322 32.4185 37.8353 31.7654H37.8513L37.6428 32.6415H39.3429L40.8506 26.2693ZM44.4272 31.2237C43.5611 31.2237 43.1441 30.6343 43.1441 29.8378C43.1441 28.7226 44.0102 27.6872 45.1489 27.6872C46.015 27.6872 46.432 28.2766 46.432 29.0731C46.432 30.1723 45.5499 31.2237 44.4272 31.2237ZM48.9341 26.2693H47.234L46.9934 27.273H46.9773C46.7368 26.6517 46.2396 26.11 45.0206 26.11C42.4865 26.11 41.2676 28.4359 41.2676 30.1086C41.2676 31.3671 41.9412 32.8008 43.7215 32.8008C44.6517 32.8008 45.4056 32.4185 45.9188 31.7654H45.9348L45.7263 32.6415H47.4264L48.9341 26.2693ZM36.3437 31.2237C35.4776 31.2237 35.0606 30.6343 35.0606 29.8378C35.0606 28.7226 35.9267 27.6872 37.0654 27.6872C37.9315 27.6872 38.3485 28.2766 38.3485 29.0731C38.3485 30.1723 37.4664 31.2237 36.3437 31.2237ZM49.0143 32.6415H50.8427L52.9437 23.7205H51.1153L49.0143 32.6415ZM14.5311 32.6415H16.3595L17.1454 29.2643C17.3218 28.4518 17.9313 27.719 18.8775 27.719C19.6153 27.719 19.8719 28.1651 19.8719 28.6748C19.8719 28.9138 19.8238 29.1528 19.7757 29.328L18.9898 32.6415H20.8182L21.6202 29.2165C21.7164 28.8341 21.7485 28.4677 21.7485 28.1491C21.7485 26.9543 21.1711 26.0941 19.7276 26.0941C18.7974 26.0941 18.1558 26.4605 17.5624 27.0977H17.5463L17.7388 26.2375H16.0387L14.5311 32.6415ZM25.0845 32.8008C25.9667 32.8008 26.6724 32.4982 26.9771 32.1636L26.4318 30.8892C26.1912 31.0803 25.8865 31.2237 25.5336 31.2237C25.1006 31.2237 24.7958 31.0007 24.7958 30.5387C24.7958 30.4113 24.8279 30.2838 24.86 30.1086L25.4213 27.7509H27.5866L27.9394 26.2534H25.7742L26.1591 24.517H24.3467L23.9458 26.2534H23.192L22.8391 27.7509H23.5929L23.0797 29.9652C23.0155 30.236 22.9674 30.5546 22.9674 30.8732C22.9514 32.0521 23.7212 32.8008 25.0845 32.8008ZM27.6668 32.6415H29.4952L30.265 29.3758C30.4896 28.4518 31.2113 27.8783 32.1095 27.8783C32.3501 27.8783 32.5586 27.9102 32.7671 28.0217L33.585 26.2375C33.3445 26.1578 33.0397 26.11 32.7671 26.11C31.917 26.11 31.083 26.6198 30.6339 27.3367H30.6179L30.8585 26.2693H29.1584L27.6668 32.6415ZM11.3394 27.5597C12.029 27.5597 12.4781 27.9261 12.4781 28.8341H9.59114C9.92795 27.9261 10.6497 27.5597 11.3394 27.5597ZM10.7139 32.8008C11.9168 32.8008 12.8791 32.3866 13.5046 31.7972L12.4781 30.698C12.1253 31.0326 11.5479 31.2556 10.9384 31.2556C10.1685 31.2556 9.44679 30.8892 9.39868 30.0608H13.9537C14.1301 29.6307 14.1942 29.1368 14.1942 28.6908C14.1942 27.3367 13.4565 26.11 11.4997 26.11C8.99771 26.11 7.68254 28.1651 7.68254 29.9652C7.68254 31.383 8.50051 32.8008 10.7139 32.8008ZM3.65682 32.8008C4.92388 32.8008 5.9664 32.3707 6.80041 31.7176L5.83809 30.3953C5.29277 30.8095 4.60311 31.0963 3.88137 31.0963C2.67846 31.0963 1.94068 30.2998 1.94068 29.0731C1.94068 27.3526 3.4002 25.8074 5.00407 25.8074C5.74185 25.8074 6.35132 26.1419 6.72021 26.5879L8.13162 25.441C7.57027 24.6763 6.78437 24.1028 5.24465 24.1028C1.90861 24.1028 0 26.8747 0 29.2165C0 30.921 1.01044 32.8008 3.65682 32.8008ZM9.44679 43.8566H13.3442C15.2368 43.8566 16.7123 42.5981 16.7123 41.0847C16.7123 40.3997 16.3274 39.7625 15.7821 39.5394C16.5519 39.0934 17.0652 38.2331 17.0652 37.4207C17.0652 36.3533 16.3274 35.4612 14.6914 35.4612H11.4196L9.44679 43.8566ZM43.4488 38.7588C44.1385 38.7588 44.5876 39.1252 44.5876 40.0333H41.7006C42.0535 39.1252 42.7592 38.7588 43.4488 38.7588ZM42.8233 44C44.0262 44 44.9885 43.5858 45.6141 42.9963L44.5876 41.8971C44.2347 42.2317 43.6573 42.4547 43.0479 42.4547C42.278 42.4547 41.5563 42.0883 41.5081 41.2599H46.0792C46.2556 40.8298 46.3198 40.336 46.3198 39.8899C46.3198 38.5358 45.582 37.3092 43.6253 37.3092C41.1232 37.3092 39.808 39.3642 39.808 41.1643C39.792 42.5822 40.61 44 42.8233 44ZM36.2314 38.7588C36.9211 38.7588 37.3702 39.1252 37.3702 40.0333H34.4832C34.82 39.1252 35.5418 38.7588 36.2314 38.7588ZM35.6059 44C36.8088 44 37.7711 43.5858 38.3966 42.9963L37.3702 41.8971C37.0173 42.2317 36.4399 42.4547 35.8144 42.4547C35.0446 42.4547 34.3228 42.0883 34.2747 41.2599H38.8457C39.0222 40.8298 39.0863 40.336 39.0863 39.8899C39.0863 38.5358 38.3485 37.3092 36.3918 37.3092C33.8898 37.3092 32.5746 39.3642 32.5746 41.1643C32.5746 42.5822 33.3926 44 35.6059 44ZM21.3154 38.7588C22.0051 38.7588 22.4542 39.1252 22.4542 40.0333H19.5672C19.904 39.1252 20.6258 38.7588 21.3154 38.7588ZM20.6899 44C21.8928 44 22.8551 43.5858 23.4807 42.9963L22.4542 41.8971C22.1013 42.2317 21.5239 42.4547 20.9145 42.4547C20.1446 42.4547 19.4229 42.0883 19.3587 41.2599H23.9297C24.1062 40.8298 24.1703 40.336 24.1703 39.8899C24.1703 38.5358 23.4325 37.3092 21.4758 37.3092C18.9577 37.3092 17.6586 39.3642 17.6586 41.1643C17.6586 42.5822 18.4766 44 20.6899 44ZM28.4366 34.9355H26.6082L24.5071 43.8566H26.3355L27.1214 40.4793C27.2979 39.6669 27.9073 38.9341 28.8536 38.9341C29.5914 38.9341 29.848 39.3801 29.848 39.8899C29.848 40.1289 29.7999 40.3678 29.7518 40.5431L28.9659 43.8566H30.7943L31.5962 40.4315C31.6925 40.0492 31.7245 39.6828 31.7245 39.3642C31.7245 38.1694 31.1311 37.3092 29.6876 37.3092C28.8055 37.3092 28.196 37.6596 27.6347 38.2969H27.6186L28.4366 34.9355ZM46.6566 43.8566H48.485L49.2548 40.5908C49.4794 39.6669 50.2011 39.0934 51.0993 39.0934C51.3399 39.0934 51.5484 39.1252 51.7569 39.2368L52.5748 37.4525C52.3343 37.3729 52.0295 37.3251 51.7569 37.3251C50.8908 37.3251 50.0728 37.8349 49.6077 38.5517L49.8483 37.4844H48.1482L46.6566 43.8566ZM11.7564 42.2476L12.2054 40.2882H13.697C14.3386 40.2882 14.7396 40.5271 14.7396 41.0847C14.7396 41.8016 14.0339 42.2476 13.264 42.2476H11.7564ZM12.5583 38.8704L12.9913 37.0543H14.3867C14.8679 37.0543 15.1726 37.3251 15.1726 37.7871C15.1726 38.4402 14.515 38.8704 13.9857 38.8704H12.5583Z" fill="white"/>
<path d="M40.9629 13.0311C40.9629 6.29254 47.9076 1.49747 58.397 0C58.0922 1.32223 57.8356 2.56481 57.5309 3.88704C50.0889 4.92252 45.1169 8.3635 45.1169 13.0949C45.1169 16.281 47.3463 17.6032 49.3832 17.6828L48.7096 20.63C45.0528 20.4707 40.9629 18.1767 40.9629 13.0311Z" fill="white"/>
<path d="M57.3544 11.9798C58.5573 11.9798 59.1989 12.617 59.1989 13.9074C59.1989 16.0739 57.3223 17.5873 54.4193 17.7626L55.6222 12.3462C56.1515 12.1072 56.8412 11.9798 57.3544 11.9798ZM63 13.4135C63.0161 10.9921 61.6688 9.30348 58.9262 9.30348C57.8677 9.30348 56.8893 9.55837 56.1836 9.87698L57.2101 5.30493C56.1355 5.43238 54.1306 5.87843 53.2806 6.21297L50.0408 20.6778H52.1579C58.8941 20.6778 62.9519 17.5555 63 13.4135Z" fill="white"/>
</g>
<defs>
<clipPath id="clip0_325_39">
<rect width="63" height="44" fill="white"/>
</clipPath>
</defs>
</svg>