<svg width="296" height="82" viewBox="0 0 296 82" fill="none" xmlns="http://www.w3.org/2000/svg">
<g clip-path="url(#clip0_347_76)">
<path d="M14.8087 49.9137L13.9163 56.2642H31.5413L30.3142 65.0658H12.6893L11.6853 71.8621H31.7644L30.4258 81.1097H0.195557L5.88466 40.7778H36.1148L34.8878 49.9137H14.8087Z" fill="white"/>
<path d="M125.356 66.8481H134.837C134.168 68.5193 133.052 69.8563 131.379 70.859C129.706 71.8616 127.698 72.3073 125.466 72.3073C122.455 72.3073 120.113 71.3046 118.327 69.4106C116.543 67.5165 115.651 64.8426 115.651 61.7231C115.651 59.272 116.208 57.1552 117.212 55.2612C118.216 53.3671 119.666 51.9187 121.451 50.916C123.236 49.9134 125.133 49.3563 127.364 49.3563C129.483 49.3563 131.379 49.8019 132.941 50.8046C134.391 51.6959 135.507 52.8101 136.176 54.2585L145.881 50.3589C145.323 49.1334 144.654 48.0193 143.873 46.9052C142.199 44.6769 139.968 43.0057 137.18 41.7801C134.503 40.5546 131.379 39.9976 128.033 39.9976C123.682 39.9976 119.778 41.0003 116.319 42.8944C112.862 44.7883 110.073 47.5736 108.176 50.916C106.169 54.3699 105.165 58.1579 105.165 62.3916C105.165 66.1796 105.945 69.522 107.619 72.4188C109.292 75.3155 111.523 77.5438 114.535 79.1035C117.547 80.6633 121.005 81.5546 124.909 81.5546C128.925 81.5546 132.495 80.7747 135.729 79.2149C138.852 77.6551 141.419 75.4269 143.427 72.5302C145.434 69.6334 146.55 66.4024 146.885 62.6144L147.331 58.2693H126.805L125.356 66.8481Z" fill="white"/>
<path d="M105.834 49.9137H93.8979L89.5471 81.1097H79.285L83.6358 49.9137H71.6995L72.9265 40.7778H107.061L105.834 49.9137Z" fill="white"/>
<path d="M59.2057 56.4868L54.9667 55.3727C53.0704 54.927 51.7318 54.4813 50.8394 53.9243C49.947 53.4786 49.5008 52.6987 49.5008 51.696C49.5008 50.6933 49.947 49.8019 50.7278 49.2449C51.5087 48.6878 52.7358 48.3536 54.1859 48.3536C55.7476 48.3536 56.9747 48.6878 57.9786 49.4678C58.8711 50.1362 59.875 51.1389 60.4328 52.0302L69.2452 48.465C68.9106 47.5737 68.4644 46.6824 67.9066 45.9025C66.568 44.0084 64.7832 42.4488 62.4406 41.446C60.0981 40.3319 57.5325 39.8862 54.5206 39.8862C51.5087 39.8862 48.72 40.4433 46.3773 41.5574C44.0348 42.6715 42.1384 44.2313 40.6882 46.3482C39.3496 48.3536 38.6804 50.8047 38.6804 53.3672C38.6804 56.2639 39.5728 58.6036 41.246 60.7205C42.9193 62.7258 45.485 64.1742 48.9431 65.0656L53.8512 66.2911C55.0783 66.5139 55.9708 66.9595 56.7516 67.4052C57.5325 67.9623 57.867 68.7422 57.867 69.7449C57.867 70.8591 57.4209 71.7503 56.4169 72.4188C55.413 73.0873 54.0744 73.4215 52.2895 73.4215C50.2817 73.4215 48.72 72.9758 47.6045 72.196C46.4889 71.4161 45.7081 70.3019 45.1503 69.0764L36.0032 72.6417C36.3379 73.6444 36.784 74.6471 37.4534 75.6497C38.792 77.6552 40.6882 79.215 43.1424 80.3291C45.5965 81.4435 48.3853 82 51.6203 82C54.9667 82 57.8671 81.4435 60.5443 80.3291C63.2215 79.215 65.2294 77.6552 66.7911 75.6497C68.3528 73.6444 69.0221 71.1933 69.0221 68.4079C69.0221 65.5113 68.1297 63.0601 66.4565 60.9433C64.8947 58.715 62.4406 57.2666 59.2057 56.4868Z" fill="white"/>
<path d="M162.055 60.943L187.489 20.2773H207.903L162.055 60.943Z" fill="white"/>
<path d="M174.773 40.6657H154.47L179.904 0H200.206L174.773 40.6657Z" fill="white"/>
<path d="M206.788 49.4678L206.676 50.6933H200.986L202.437 40.4434H203.776L202.548 49.4678H206.788Z" fill="white"/>
<path d="M213.368 46.6831C213.368 46.0147 213.257 45.569 212.923 45.2348C212.588 44.9005 212.03 44.6777 211.472 44.6777C210.803 44.6777 210.357 44.9005 209.911 45.2348C209.464 45.569 209.241 46.1261 209.129 46.7945H213.368V46.6831ZM213.257 50.2484C212.588 50.694 211.807 50.9168 211.026 50.9168C210.357 50.9168 209.799 50.8054 209.241 50.4712C208.684 50.137 208.349 49.8027 208.014 49.2456C207.791 48.6886 207.568 48.1315 207.568 47.4631C207.568 46.6831 207.68 46.0147 208.014 45.4576C208.349 44.9005 208.795 44.3435 209.353 44.0092C209.911 43.675 210.58 43.4521 211.249 43.4521C211.919 43.4521 212.476 43.5635 212.923 43.8978C213.368 44.1206 213.815 44.5663 214.038 45.0119C214.261 45.4576 214.484 46.0147 214.484 46.6831C214.484 47.0174 214.484 47.3516 214.372 47.5745H208.795C208.795 48.2429 208.907 48.8 209.353 49.1342C209.799 49.4684 210.245 49.6913 210.915 49.6913C211.36 49.6913 211.807 49.5799 212.253 49.357C212.588 49.1343 212.923 48.8 213.145 48.4658H214.484C214.372 49.2456 213.927 49.8027 213.257 50.2484Z" fill="white"/>
<path d="M220.397 49.357C220.731 49.1343 221.066 48.8 221.289 48.4658C221.511 48.0201 221.623 47.5745 221.623 47.1288C221.623 46.4603 221.401 45.7919 221.066 45.4576C220.619 45.0119 220.173 44.7892 219.504 44.7892C219.058 44.7892 218.611 44.9005 218.277 45.1233C217.942 45.3462 217.607 45.6804 217.384 46.1261C217.162 46.5717 217.05 47.0174 217.05 47.4631C217.05 48.1315 217.273 48.6886 217.607 49.1342C217.942 49.5799 218.5 49.8027 219.17 49.8027C219.615 49.6913 219.95 49.5799 220.397 49.357ZM223.409 43.675L222.405 50.694H221.177L221.289 49.6913C221.066 50.0255 220.619 50.3598 220.173 50.5826C219.727 50.8054 219.17 50.9168 218.611 50.9168C218.054 50.9168 217.496 50.8054 217.05 50.4712C216.603 50.137 216.158 49.8027 215.934 49.2456C215.711 48.6886 215.488 48.1315 215.488 47.4631C215.488 46.6831 215.599 46.0147 215.934 45.4576C216.269 44.9005 216.715 44.3435 217.273 44.0092C217.831 43.675 218.5 43.4521 219.17 43.4521C219.727 43.4521 220.285 43.5635 220.842 43.8978C221.289 44.1206 221.735 44.5663 221.958 45.0119L222.293 43.675H223.409Z" fill="white"/>
<path d="M228.986 49.3563C229.32 49.1336 229.654 48.7993 229.878 48.4651C230.101 48.0194 230.213 47.5738 230.213 47.1281C230.213 46.4596 229.989 45.7912 229.654 45.3455C229.209 44.8998 228.762 44.6771 228.093 44.6771C227.647 44.6771 227.201 44.7885 226.866 45.0112C226.532 45.2341 226.197 45.5683 225.974 46.014C225.75 46.4596 225.639 46.9053 225.639 47.351C225.639 48.0194 225.862 48.5765 226.197 49.0222C226.643 49.4678 227.089 49.6906 227.758 49.6906C228.205 49.6906 228.651 49.5792 228.986 49.3563ZM232.556 39.7749L230.993 50.6933H229.878V49.6906C229.654 50.0249 229.209 50.3591 228.762 50.582C228.317 50.8047 227.758 50.9161 227.201 50.9161C226.532 50.9161 225.974 50.8047 225.527 50.4705C225.081 50.1363 224.635 49.802 224.413 49.2449C224.189 48.6879 224.078 48.1308 224.078 47.4624C224.078 46.6824 224.189 46.014 224.523 45.4569C224.858 44.8998 225.305 44.3428 225.862 44.0085C226.42 43.6743 227.089 43.5629 227.758 43.5629C228.317 43.5629 228.762 43.6743 229.32 43.8971C229.766 44.12 230.101 44.4542 230.436 44.8998L231.105 39.7749H232.556Z" fill="white"/>
<path d="M234.117 41.6687C234.005 41.5573 233.893 41.3346 233.893 41.1117C233.893 40.7775 234.005 40.5546 234.228 40.3318C234.452 40.1089 234.675 39.9976 235.009 39.9976C235.232 39.9976 235.456 40.1089 235.679 40.2204C235.791 40.3318 235.902 40.5546 235.902 40.7775C235.902 41.1117 235.791 41.3346 235.567 41.5573C235.344 41.7801 235.121 41.8916 234.787 41.8916C234.452 41.8916 234.228 41.8916 234.117 41.6687ZM233.783 43.6742H235.121L234.117 50.6932H232.779L233.783 43.6742Z" fill="white"/>
<path d="M242.26 44.0083C242.707 44.454 242.818 45.011 242.818 45.6796C242.818 45.9024 242.818 46.0138 242.818 46.2366L242.26 50.5817H240.922L241.479 46.5708C241.479 46.348 241.479 46.2366 241.479 46.0138C241.479 45.011 241.034 44.5654 240.14 44.5654C239.583 44.5654 239.136 44.7882 238.691 45.1225C238.356 45.4567 238.021 45.9024 238.021 46.4594L237.464 50.5817H236.125L237.129 43.5627H238.244V44.5654C238.467 44.2312 238.914 43.8969 239.248 43.6741C239.695 43.4512 240.14 43.3398 240.699 43.3398C241.256 43.4512 241.814 43.6741 242.26 44.0083Z" fill="white"/>
<path d="M249.288 48.5772C249.734 48.1315 249.957 47.5745 249.957 46.7945C249.957 46.1261 249.734 45.6804 249.4 45.2348C248.953 44.7892 248.507 44.5663 247.838 44.5663C247.057 44.5663 246.499 44.7892 246.053 45.2348C245.607 45.6804 245.383 46.2375 245.383 47.0174C245.383 47.6859 245.607 48.1315 245.942 48.5772C246.387 49.0229 246.834 49.1342 247.503 49.1342C248.284 49.2456 248.842 49.0229 249.288 48.5772ZM251.742 43.675L250.738 51.0282C250.626 52.031 250.181 52.8109 249.511 53.368C248.842 53.925 248.061 54.1478 246.946 54.1478C246.053 54.1478 245.273 53.925 244.603 53.368C244.045 52.9223 243.599 52.1423 243.599 51.3625H244.938C245.049 51.8082 245.272 52.2538 245.607 52.4766C245.942 52.8109 246.499 52.9223 247.057 52.9223C247.726 52.9223 248.284 52.6994 248.73 52.3652C249.177 52.0309 249.4 51.5853 249.511 50.9168L249.734 49.4684C249.511 49.8027 249.065 50.0255 248.618 50.2484C248.173 50.4712 247.726 50.4712 247.169 50.4712C246.611 50.4712 246.053 50.3598 245.607 50.0255C245.161 49.6913 244.714 49.357 244.491 48.8C244.268 48.3543 244.045 47.6859 244.045 47.1288C244.045 46.3489 244.157 45.7919 244.491 45.2348C244.826 44.6777 245.273 44.2321 245.83 43.8978C246.387 43.5635 247.057 43.4521 247.726 43.4521C248.284 43.4521 248.842 43.5635 249.288 43.8978C249.734 44.1206 250.069 44.5663 250.404 45.0119L250.738 43.7864H251.742V43.675Z" fill="white"/>
<path d="M257.208 41.6687C257.096 41.5573 256.985 41.3346 256.985 41.1117C256.985 40.7775 257.096 40.5546 257.32 40.3318C257.542 40.1089 257.765 39.9976 258.1 39.9976C258.324 39.9976 258.546 40.1089 258.769 40.2204C258.881 40.3318 258.993 40.5546 258.993 40.7775C258.993 41.1117 258.881 41.3346 258.658 41.5573C258.435 41.7801 258.212 41.8916 257.877 41.8916C257.542 41.8916 257.32 41.8916 257.208 41.6687ZM256.985 43.6742H258.324L257.32 50.6932H255.981L256.985 43.6742Z" fill="white"/>
<path d="M265.351 44.0083C265.798 44.454 265.908 45.011 265.908 45.6796C265.908 45.9024 265.908 46.0138 265.908 46.2366L265.351 50.5817H264.012L264.571 46.5708C264.571 46.348 264.571 46.2366 264.571 46.0138C264.571 45.011 264.124 44.5654 263.232 44.5654C262.674 44.5654 262.228 44.7882 261.781 45.1225C261.447 45.4567 261.112 45.9024 261.112 46.4594L260.555 50.5817H259.104L260.108 43.5627H261.224V44.5654C261.447 44.2312 261.893 43.8969 262.228 43.6741C262.674 43.4512 263.12 43.3398 263.678 43.3398C264.347 43.4512 264.905 43.6741 265.351 44.0083Z" fill="white"/>
<path d="M205.002 60.3863C205.449 59.9406 205.672 59.3835 205.672 58.7151C205.672 58.158 205.449 57.7123 205.114 57.3781C204.78 57.0439 204.333 56.9324 203.664 56.9324H201.321L200.763 61.0547H202.994C203.886 60.9433 204.556 60.7204 205.002 60.3863ZM206.229 56.4867C206.787 57.0439 207.121 57.7124 207.121 58.7151C207.121 59.3835 206.898 60.052 206.564 60.609C206.229 61.1661 205.784 61.6118 205.114 61.8346C204.445 62.1688 203.776 62.2802 202.994 62.2802H200.652L200.094 65.9569H198.755L200.206 55.7069H203.886C204.89 55.5955 205.672 55.9297 206.229 56.4867Z" fill="white"/>
<path d="M209.018 64.1743C209.464 64.6199 209.911 64.8427 210.692 64.8427C211.137 64.8427 211.584 64.7314 212.03 64.5085C212.476 64.2857 212.699 63.9514 212.923 63.5057C213.145 63.0602 213.257 62.6145 213.257 62.0574C213.257 61.3889 213.034 60.8318 212.699 60.3863C212.253 59.9406 211.807 59.7177 211.137 59.7177C210.692 59.7177 210.245 59.8292 209.799 60.052C209.353 60.2748 209.129 60.609 208.907 61.0547C208.684 61.5004 208.572 61.9459 208.572 62.5031C208.349 63.1716 208.572 63.7286 209.018 64.1743ZM207.568 60.4976C207.903 59.9406 208.349 59.3835 209.018 59.0493C209.576 58.715 210.245 58.4922 211.026 58.4922C211.695 58.4922 212.364 58.6036 212.923 58.9379C213.48 59.2721 213.815 59.6063 214.149 60.1634C214.484 60.7204 214.596 61.2775 214.596 61.9459C214.596 62.7259 214.372 63.3943 214.038 63.9514C213.703 64.5085 213.257 65.0655 212.588 65.3998C212.03 65.7341 211.249 65.9569 210.58 65.9569C209.911 65.9569 209.241 65.8455 208.795 65.5112C208.237 65.1769 207.903 64.8427 207.568 64.2857C207.233 63.7286 207.121 63.1716 207.121 62.5031C207.01 61.8346 207.233 61.1661 207.568 60.4976Z" fill="white"/>
<path d="M216.046 65.4007C215.488 65.0664 215.265 64.5093 215.154 63.8409H216.38C216.38 64.1751 216.603 64.5093 216.827 64.6207C217.05 64.7322 217.496 64.955 217.942 64.955C218.388 64.955 218.723 64.8436 219.058 64.6207C219.281 64.3979 219.504 64.1751 219.504 63.8409C219.504 63.3952 219.17 63.061 218.611 62.9495L217.384 62.6153C216.827 62.5039 216.492 62.2811 216.158 61.9468C215.823 61.6126 215.711 61.2783 215.711 60.8327C215.711 60.1642 215.934 59.6072 216.492 59.2729C217.05 58.8273 217.719 58.7158 218.5 58.7158C219.281 58.7158 219.839 58.9387 220.396 59.2729C220.842 59.7185 221.177 60.1642 221.177 60.8327H219.839C219.839 60.4985 219.727 60.1642 219.392 60.0528C219.17 59.83 218.835 59.7186 218.388 59.7186C217.942 59.7186 217.719 59.8299 217.384 59.9414C217.162 60.1642 217.05 60.3871 217.05 60.7213C217.05 61.0556 217.162 61.2783 217.273 61.3897C217.496 61.5012 217.607 61.6126 217.942 61.6126L219.058 61.8354C219.615 61.9468 220.062 62.1697 220.396 62.5039C220.731 62.8381 220.842 63.2838 220.842 63.7295C220.842 64.3979 220.619 64.955 220.062 65.4007C219.504 65.8463 218.835 66.0691 217.942 66.0691C217.273 66.0691 216.603 65.8463 216.046 65.4007Z" fill="white"/>
<path d="M233.225 55.3727C233.336 55.4842 233.448 55.707 233.448 55.9297C233.448 56.264 233.336 56.4869 233.113 56.7097C232.89 56.9325 232.667 57.044 232.332 57.044C232.109 57.044 231.886 56.9325 231.663 56.8211C231.552 56.7097 231.44 56.4869 231.44 56.264C231.44 55.9298 231.552 55.707 231.774 55.4842C231.997 55.2613 232.221 55.1499 232.556 55.1499C232.89 55.1499 233.113 55.2613 233.225 55.3727ZM223.297 56.8211C223.185 56.7097 223.074 56.4869 223.074 56.264C223.074 55.9298 223.185 55.707 223.409 55.4842C223.631 55.2613 223.854 55.1499 224.189 55.1499C224.413 55.1499 224.635 55.2613 224.858 55.3727C224.97 55.4842 225.081 55.707 225.081 55.9297C225.081 56.264 224.97 56.4869 224.746 56.7097C224.523 56.9325 224.301 57.044 223.966 57.044C223.631 57.044 223.519 57.044 223.297 56.8211ZM228.54 58.8266H232.667L231.663 65.8456H230.324L231.105 59.9407H228.205L227.424 65.8456H226.085L226.866 59.9407H223.966L223.409 65.8456H222.07L223.074 58.8266H227.313L227.536 56.9325H228.874L228.54 58.8266Z" fill="white"/>
<path d="M235.009 58.8257L236.348 64.3963L239.36 58.8257H240.81L236.906 65.8447H235.567L233.671 58.8257H235.009Z" fill="white"/>
<path d="M246.165 61.7231C246.165 61.0546 246.053 60.609 245.718 60.2747C245.383 59.9405 244.826 59.7176 244.268 59.7176C243.599 59.7176 243.153 59.9405 242.707 60.2747C242.26 60.609 242.038 61.166 241.926 61.8345H246.165V61.7231ZM246.053 65.3997C245.383 65.8454 244.603 66.0682 243.822 66.0682C243.153 66.0682 242.595 65.9568 242.038 65.6225C241.479 65.2884 241.144 64.9541 240.81 64.397C240.587 63.84 240.364 63.2829 240.364 62.6144C240.364 61.8345 240.475 61.166 240.81 60.609C241.144 60.0519 241.591 59.4949 242.149 59.1606C242.707 58.8264 243.375 58.6035 244.045 58.6035C244.714 58.6035 245.273 58.715 245.718 59.0492C246.165 59.2721 246.611 59.7176 246.834 60.1633C247.057 60.609 247.281 61.166 247.281 61.8345C247.281 62.1688 247.281 62.503 247.169 62.7258H241.591C241.591 63.3943 241.703 63.9513 242.149 64.2856C242.595 64.6199 243.041 64.8427 243.71 64.8427C244.157 64.8427 244.603 64.7313 245.049 64.5084C245.383 64.2856 245.718 63.9513 245.942 63.6172H247.281C247.169 64.397 246.722 64.9541 246.053 65.3997Z" fill="white"/>
<path d="M254.42 56.9326L253.973 60.0522H258.435L258.212 61.2777H253.75L253.304 64.5088H258.324L258.1 65.8457H251.742L253.192 55.5957H259.551L259.328 56.9326H254.42Z" fill="white"/>
<path d="M265.686 59.1606C266.132 59.6063 266.243 60.1634 266.243 60.8318C266.243 61.0547 266.243 61.1661 266.243 61.3889L265.686 65.7341H264.347L264.905 61.7232C264.905 61.5004 264.905 61.3889 264.905 61.1661C264.905 60.1634 264.459 59.7177 263.567 59.7177C263.008 59.7177 262.563 59.9406 262.116 60.2748C261.781 60.609 261.447 61.0547 261.447 61.6118L260.889 65.7341H259.551L260.555 58.715H261.669V59.7177C261.893 59.3835 262.339 59.0493 262.674 58.8265C263.12 58.6036 263.567 58.4922 264.124 58.4922C264.793 58.6036 265.351 58.8265 265.686 59.1606Z" fill="white"/>
<path d="M273.16 61.7231C273.16 61.0546 273.049 60.609 272.714 60.2747C272.379 59.9405 271.821 59.7176 271.263 59.7176C270.594 59.7176 270.147 59.9405 269.702 60.2747C269.255 60.609 269.033 61.166 268.921 61.8345H273.16V61.7231ZM273.049 65.3997C272.379 65.8454 271.598 66.0682 270.817 66.0682C270.147 66.0682 269.59 65.9568 269.033 65.6225C268.475 65.2884 268.14 64.9541 267.806 64.397C267.582 63.84 267.359 63.2829 267.359 62.6144C267.359 61.8345 267.471 61.166 267.806 60.609C268.14 60.0519 268.586 59.4949 269.144 59.1606C269.702 58.8264 270.371 58.6035 271.041 58.6035C271.71 58.6035 272.267 58.715 272.714 59.0492C273.16 59.2721 273.606 59.7176 273.829 60.1633C274.053 60.609 274.275 61.166 274.275 61.8345C274.275 62.1688 274.275 62.503 274.164 62.7258H268.586C268.586 63.3943 268.698 63.9513 269.144 64.2856C269.59 64.6199 270.037 64.8427 270.706 64.8427C271.151 64.8427 271.598 64.7313 272.045 64.5084C272.379 64.2856 272.714 63.9513 272.937 63.6172H274.275C274.164 64.397 273.718 64.9541 273.049 65.3997Z" fill="white"/>
<path d="M280.188 58.8264L280.076 59.9405C279.853 59.9405 279.629 59.8291 279.406 59.8291C278.849 59.8291 278.292 60.0519 277.957 60.3862C277.622 60.7204 277.398 61.2774 277.288 61.946L276.729 65.8454H275.39L276.394 58.8264H277.51V59.7176C277.733 59.3835 277.957 59.1606 278.292 58.9378C278.626 58.715 279.072 58.6035 279.406 58.6035C279.741 58.715 279.964 58.715 280.188 58.8264Z" fill="white"/>
<path d="M285.431 63.7286C285.876 63.2829 286.1 62.7258 286.1 61.946C286.1 61.2774 285.876 60.8318 285.542 60.3862C285.096 59.9405 284.649 59.7176 283.98 59.7176C283.2 59.7176 282.641 59.9405 282.196 60.3862C281.749 60.8318 281.526 61.3889 281.526 62.1688C281.526 62.8372 281.749 63.2829 282.084 63.7286C282.531 64.1742 282.976 64.2856 283.645 64.2856C284.427 64.397 284.984 64.1742 285.431 63.7286ZM287.884 58.8264L286.88 66.1796C286.769 67.1823 286.323 67.9623 285.653 68.5193C284.984 69.0764 284.203 69.2992 283.088 69.2992C282.196 69.2992 281.415 69.0764 280.745 68.5193C280.188 68.0737 279.741 67.2938 279.741 66.5139H281.08C281.192 66.9595 281.415 67.4052 281.749 67.628C282.084 67.9623 282.641 68.0737 283.2 68.0737C283.869 68.0737 284.427 67.8509 284.872 67.5166C285.319 67.1823 285.542 66.7367 285.653 66.0682L285.876 64.6199C285.653 64.9541 285.207 65.177 284.761 65.3997C284.315 65.6225 283.869 65.6225 283.311 65.6225C282.753 65.6225 282.196 65.5111 281.749 65.177C281.303 64.8427 280.857 64.5084 280.633 63.9513C280.411 63.5058 280.188 62.8372 280.188 62.2802C280.188 61.5003 280.299 60.9433 280.633 60.3862C280.968 59.8291 281.415 59.3835 281.972 59.0492C282.531 58.715 283.2 58.6035 283.869 58.6035C284.427 58.6035 284.984 58.715 285.431 59.0492C285.876 59.2721 286.211 59.7176 286.546 60.1633L286.88 58.9378H287.884V58.8264Z" fill="white"/>
<path d="M295.805 58.8271L291.454 67.1831C291.119 67.7401 290.784 68.2972 290.339 68.6315C289.892 68.9657 289.335 69.0771 288.665 69.0771C288.331 69.0771 287.884 69.0771 287.55 68.9657L287.661 67.8516C287.661 67.8516 287.773 67.8516 287.996 67.963C288.219 67.963 288.331 67.963 288.554 67.963C289 67.963 289.335 67.8515 289.558 67.7401C289.78 67.5173 290.004 67.2945 290.227 66.9603L290.674 66.1803L288.776 58.9385H290.115L291.566 64.732L294.466 58.9385H295.805V58.8271Z" fill="white"/>
</g>
<defs>
<clipPath id="clip0_347_76">
<rect width="296" height="82" fill="white"/>
</clipPath>
</defs>
</svg>
