<svg viewBox="22.22 18.8467 295.895 82.0793" width="296" height="82" xmlns="http://www.w3.org/2000/svg"><title>ESTG</title><path d="M36.8473 68.8088L35.954 75.1654H53.5961L52.3678 83.9756H34.7258L33.7209 90.7784H53.8194L52.4795 100.035H22.22L27.9146 59.6641H58.174L56.9458 68.8088H36.8473Z" fill="white" transform="matrix(1, 0, 0, 1, 1.4210854715202004e-14, 1.4210854715202004e-14)"></path><path d="M147.501 85.7593H156.992C156.322 87.4321 155.205 88.7704 153.53 89.7741C151.856 90.7777 149.846 91.2238 147.612 91.2238C144.598 91.2238 142.253 90.2201 140.466 88.3243C138.68 86.4284 137.787 83.7519 137.787 80.6294C137.787 78.1759 138.345 76.057 139.35 74.1612C140.355 72.2653 141.806 70.8155 143.593 69.8118C145.379 68.8082 147.278 68.2506 149.511 68.2506C151.632 68.2506 153.53 68.6966 155.094 69.7003C156.545 70.5925 157.662 71.7077 158.332 73.1575L168.046 69.2542C167.488 68.0275 166.818 66.9123 166.036 65.7971C164.361 63.5667 162.128 61.8939 159.337 60.6671C156.657 59.4404 153.53 58.8828 150.181 58.8828C145.826 58.8828 141.918 59.8865 138.456 61.7824C134.995 63.6782 132.204 66.4662 130.305 69.8118C128.296 73.269 127.291 77.0607 127.291 81.2985C127.291 85.0902 128.072 88.4358 129.747 91.3354C131.422 94.2349 133.655 96.4653 136.67 98.0266C139.685 99.5879 143.146 100.48 147.054 100.48C151.074 100.48 154.647 99.6994 157.885 98.1381C161.011 96.5768 163.58 94.3464 165.59 91.4469C167.599 88.5473 168.716 85.3132 169.051 81.5215L169.498 77.1722H148.952L147.501 85.7593Z" fill="white" transform="matrix(1, 0, 0, 1, 1.4210854715202004e-14, 1.4210854715202004e-14)"></path><path d="M127.961 68.8088H116.013L111.658 100.035H101.386L105.741 68.8088H93.7931L95.0213 59.6641H129.189L127.961 68.8088Z" fill="white" transform="matrix(1, 0, 0, 1, 1.4210854715202004e-14, 1.4210854715202004e-14)"></path><path d="M81.2874 75.3881L77.0443 74.2729C75.1461 73.8268 73.8062 73.3807 72.913 72.8231C72.0197 72.377 71.5731 71.5964 71.5731 70.5927C71.5731 69.589 72.0197 68.6968 72.8013 68.1392C73.5829 67.5816 74.8112 67.2471 76.2627 67.2471C77.8259 67.2471 79.0542 67.5816 80.0591 68.3623C80.9524 69.0314 81.9573 70.0351 82.5156 70.9272L91.3366 67.3586C91.0016 66.4664 90.555 65.5742 89.9967 64.7936C88.6568 62.8977 86.8703 61.3365 84.5254 60.3328C82.1806 59.2176 79.6125 58.7715 76.5977 58.7715C73.5829 58.7715 70.7915 59.3291 68.4466 60.4443C66.1018 61.5595 64.2036 63.1208 62.752 65.2397C61.4121 67.2471 60.7422 69.7005 60.7422 72.2655C60.7422 75.165 61.6355 77.507 63.3103 79.6259C64.9852 81.6332 67.5534 83.083 71.0148 83.9752L75.9277 85.2019C77.156 85.4249 78.0493 85.871 78.8309 86.3171C79.6125 86.8747 79.9474 87.6554 79.9474 88.659C79.9474 89.7743 79.5008 90.6664 78.4959 91.3355C77.491 92.0047 76.1511 92.3392 74.3645 92.3392C72.3547 92.3392 70.7915 91.8931 69.6749 91.1125C68.5583 90.3319 67.7767 89.2166 67.2184 87.9899L58.0624 91.5586C58.3974 92.5623 58.844 93.566 59.514 94.5696C60.8539 96.577 62.752 98.1383 65.2085 99.2535C67.665 100.369 70.4565 100.926 73.6946 100.926C77.0443 100.926 79.9475 100.369 82.6273 99.2535C85.3071 98.1383 87.3169 96.577 88.8801 94.5696C90.4433 92.5623 91.1133 90.1088 91.1133 87.3208C91.1133 84.4213 90.22 81.9678 88.5452 79.8489C86.9819 77.6185 84.5254 76.1687 81.2874 75.3881Z" fill="white" transform="matrix(1, 0, 0, 1, 1.4210854715202004e-14, 1.4210854715202004e-14)"></path><path d="M184.236 79.8486L209.695 39.1436H230.128L184.236 79.8486Z" fill="white" transform="matrix(1, 0, 0, 1, 1.4210854715202004e-14, 1.4210854715202004e-14)"></path><path d="M196.966 59.5517H176.644L202.102 18.8467H222.424L196.966 59.5517Z" fill="#F3CE12" transform="matrix(1, 0, 0, 1, 1.4210854715202004e-14, 1.4210854715202004e-14)"></path><path d="M229.012 68.3623L228.9 69.589H223.205L224.657 59.3291H225.997L224.768 68.3623H229.012Z" fill="white" transform="matrix(1, 0, 0, 1, 1.4210854715202004e-14, 1.4210854715202004e-14)"></path><path d="M235.599 65.5749C235.599 64.9058 235.488 64.4597 235.153 64.1252C234.818 63.7906 234.259 63.5675 233.701 63.5675C233.031 63.5675 232.585 63.7906 232.138 64.1252C231.691 64.4597 231.468 65.0173 231.356 65.6864H235.599V65.5749ZM235.488 69.1436C234.818 69.5897 234.036 69.8127 233.254 69.8127C232.585 69.8127 232.026 69.7012 231.468 69.3666C230.91 69.0321 230.575 68.6975 230.24 68.1399C230.016 67.5823 229.793 67.0247 229.793 66.3556C229.793 65.5749 229.905 64.9058 230.24 64.3482C230.575 63.7906 231.021 63.233 231.58 62.8984C232.138 62.5639 232.808 62.3408 233.478 62.3408C234.148 62.3408 234.706 62.4523 235.153 62.7869C235.599 63.0099 236.046 63.456 236.269 63.9021C236.493 64.3482 236.716 64.9058 236.716 65.5749C236.716 65.9095 236.716 66.244 236.604 66.4671H231.021C231.021 67.1362 231.133 67.6938 231.58 68.0284C232.026 68.3629 232.473 68.586 233.143 68.586C233.589 68.586 234.036 68.4745 234.483 68.2514C234.818 68.0284 235.153 67.6938 235.376 67.3593H236.716C236.604 68.1399 236.158 68.6975 235.488 69.1436Z" fill="white" transform="matrix(1, 0, 0, 1, 1.4210854715202004e-14, 1.4210854715202004e-14)"></path><path d="M242.634 68.2514C242.969 68.0284 243.304 67.6938 243.527 67.3593C243.75 66.9132 243.862 66.4671 243.862 66.021C243.862 65.3519 243.639 64.6828 243.304 64.3482C242.857 63.9021 242.41 63.6791 241.741 63.6791C241.294 63.6791 240.847 63.7906 240.512 64.0136C240.177 64.2367 239.842 64.5712 239.619 65.0173C239.396 65.4634 239.284 65.9095 239.284 66.3556C239.284 67.0247 239.507 67.5823 239.842 68.0284C240.177 68.4745 240.736 68.6975 241.406 68.6975C241.852 68.586 242.187 68.4745 242.634 68.2514ZM245.649 62.5639L244.644 69.5897H243.415L243.527 68.586C243.304 68.9205 242.857 69.2551 242.41 69.4781C241.964 69.7012 241.406 69.8127 240.847 69.8127C240.289 69.8127 239.731 69.7012 239.284 69.3666C238.837 69.0321 238.391 68.6975 238.167 68.1399C237.944 67.5823 237.721 67.0247 237.721 66.3556C237.721 65.5749 237.832 64.9058 238.167 64.3482C238.502 63.7906 238.949 63.233 239.507 62.8984C240.066 62.5639 240.736 62.3408 241.406 62.3408C241.964 62.3408 242.522 62.4523 243.08 62.7869C243.527 63.0099 243.974 63.456 244.197 63.9021L244.532 62.5639H245.649Z" fill="white" transform="matrix(1, 0, 0, 1, 1.4210854715202004e-14, 1.4210854715202004e-14)"></path><path d="M251.232 68.2509C251.566 68.0279 251.901 67.6933 252.125 67.3588C252.348 66.9127 252.46 66.4666 252.46 66.0205C252.46 65.3514 252.236 64.6823 251.901 64.2362C251.455 63.7901 251.008 63.5671 250.338 63.5671C249.892 63.5671 249.445 63.6786 249.11 63.9016C248.775 64.1247 248.44 64.4592 248.217 64.9053C247.993 65.3514 247.882 65.7975 247.882 66.2436C247.882 66.9127 248.105 67.4703 248.44 67.9164C248.887 68.3625 249.333 68.5855 250.003 68.5855C250.45 68.5855 250.897 68.474 251.232 68.2509ZM254.805 58.6602L253.241 69.5892H252.125V68.5855C251.901 68.9201 251.455 69.2546 251.008 69.4777C250.562 69.7007 250.003 69.8122 249.445 69.8122C248.775 69.8122 248.217 69.7007 247.77 69.3661C247.323 69.0316 246.877 68.697 246.654 68.1394C246.43 67.5818 246.319 67.0242 246.319 66.3551C246.319 65.5744 246.43 64.9053 246.765 64.3477C247.1 63.7901 247.547 63.2325 248.105 62.8979C248.663 62.5634 249.333 62.4519 250.003 62.4519C250.562 62.4519 251.008 62.5634 251.566 62.7864C252.013 63.0095 252.348 63.344 252.683 63.7901L253.353 58.6602H254.805Z" fill="white" transform="matrix(1, 0, 0, 1, 1.4210854715202004e-14, 1.4210854715202004e-14)"></path><path d="M256.368 60.5556C256.256 60.4441 256.144 60.2211 256.144 59.998C256.144 59.6635 256.256 59.4404 256.479 59.2174C256.703 58.9943 256.926 58.8828 257.261 58.8828C257.484 58.8828 257.708 58.9943 257.931 59.1059C258.043 59.2174 258.154 59.4404 258.154 59.6635C258.154 59.998 258.043 60.2211 257.819 60.4441C257.596 60.6671 257.373 60.7787 257.038 60.7787C256.703 60.7787 256.479 60.7787 256.368 60.5556ZM256.033 62.563H257.373L256.368 69.5888H255.028L256.033 62.563Z" fill="white" transform="matrix(1, 0, 0, 1, 1.4210854715202004e-14, 1.4210854715202004e-14)"></path><path d="M264.519 62.8976C264.966 63.3437 265.077 63.9013 265.077 64.5705C265.077 64.7935 265.077 64.905 265.077 65.1281L264.519 69.4774H263.179L263.737 65.4626C263.737 65.2396 263.737 65.1281 263.737 64.905C263.737 63.9013 263.291 63.4552 262.397 63.4552C261.839 63.4552 261.392 63.6783 260.946 64.0129C260.611 64.3474 260.276 64.7935 260.276 65.3511L259.718 69.4774H258.378L259.383 62.4516H260.499V63.4552C260.722 63.1207 261.169 62.7861 261.504 62.5631C261.951 62.34 262.397 62.2285 262.956 62.2285C263.514 62.34 264.072 62.5631 264.519 62.8976Z" fill="white" transform="matrix(1, 0, 0, 1, 1.4210854715202004e-14, 1.4210854715202004e-14)"></path><path d="M271.553 67.4708C272 67.0247 272.223 66.4671 272.223 65.6864C272.223 65.0173 272 64.5712 271.665 64.1252C271.218 63.6791 270.772 63.456 270.102 63.456C269.32 63.456 268.762 63.6791 268.315 64.1252C267.869 64.5712 267.645 65.1288 267.645 65.9095C267.645 66.5786 267.869 67.0247 268.204 67.4708C268.65 67.9169 269.097 68.0284 269.767 68.0284C270.548 68.1399 271.107 67.9169 271.553 67.4708ZM274.01 62.5639L273.005 69.9242C272.893 70.9279 272.447 71.7086 271.777 72.2662C271.107 72.8238 270.325 73.0468 269.209 73.0468C268.315 73.0468 267.534 72.8238 266.864 72.2662C266.305 71.8201 265.859 71.0394 265.859 70.2588H267.199C267.31 70.7049 267.534 71.151 267.869 71.374C268.204 71.7086 268.762 71.8201 269.32 71.8201C269.99 71.8201 270.548 71.597 270.995 71.2625C271.442 70.9279 271.665 70.4818 271.777 69.8127L272 68.3629C271.777 68.6975 271.33 68.9205 270.883 69.1436C270.437 69.3666 269.99 69.3666 269.432 69.3666C268.874 69.3666 268.315 69.2551 267.869 68.9205C267.422 68.586 266.975 68.2514 266.752 67.6938C266.529 67.2477 266.305 66.5786 266.305 66.021C266.305 65.2404 266.417 64.6828 266.752 64.1252C267.087 63.5675 267.534 63.1215 268.092 62.7869C268.65 62.4523 269.32 62.3408 269.99 62.3408C270.548 62.3408 271.107 62.4523 271.553 62.7869C272 63.0099 272.335 63.456 272.67 63.9021L273.005 62.6754H274.01V62.5639Z" fill="white" transform="matrix(1, 0, 0, 1, 1.4210854715202004e-14, 1.4210854715202004e-14)"></path><path d="M279.481 60.5556C279.369 60.4441 279.258 60.2211 279.258 59.998C279.258 59.6635 279.369 59.4404 279.593 59.2174C279.816 58.9943 280.039 58.8828 280.374 58.8828C280.598 58.8828 280.821 58.9943 281.044 59.1059C281.156 59.2174 281.268 59.4404 281.268 59.6635C281.268 59.998 281.156 60.2211 280.933 60.4441C280.709 60.6671 280.486 60.7787 280.151 60.7787C279.816 60.7787 279.593 60.7787 279.481 60.5556ZM279.258 62.563H280.598L279.593 69.5888H278.253L279.258 62.563Z" fill="white" transform="matrix(1, 0, 0, 1, 1.4210854715202004e-14, 1.4210854715202004e-14)"></path><path d="M287.632 62.8976C288.079 63.3437 288.19 63.9013 288.19 64.5705C288.19 64.7935 288.19 64.905 288.19 65.1281L287.632 69.4774H286.292L286.851 65.4626C286.851 65.2396 286.851 65.1281 286.851 64.905C286.851 63.9013 286.404 63.4552 285.511 63.4552C284.952 63.4552 284.506 63.6783 284.059 64.0129C283.724 64.3474 283.389 64.7935 283.389 65.3511L282.831 69.4774H281.379L282.384 62.4516H283.501V63.4552C283.724 63.1207 284.171 62.7861 284.506 62.5631C284.952 62.34 285.399 62.2285 285.957 62.2285C286.627 62.34 287.186 62.5631 287.632 62.8976Z" fill="white" transform="matrix(1, 0, 0, 1, 1.4210854715202004e-14, 1.4210854715202004e-14)"></path><path d="M227.225 79.2912C227.672 78.8451 227.895 78.2875 227.895 77.6184C227.895 77.0608 227.672 76.6147 227.337 76.2801C227.002 75.9456 226.555 75.834 225.885 75.834H223.54L222.982 79.9603H225.215C226.108 79.8488 226.778 79.6257 227.225 79.2912ZM228.453 75.3879C229.011 75.9456 229.346 76.6147 229.346 77.6184C229.346 78.2875 229.123 78.9566 228.788 79.5142C228.453 80.0718 228.007 80.5179 227.337 80.7409C226.667 81.0755 225.997 81.187 225.215 81.187H222.87L222.312 84.8672H220.972L222.424 74.6073H226.108C227.113 74.4958 227.895 74.8303 228.453 75.3879Z" fill="white" transform="matrix(1, 0, 0, 1, 1.4210854715202004e-14, 1.4210854715202004e-14)"></path><path d="M231.245 83.0831C231.691 83.5291 232.138 83.7522 232.92 83.7522C233.366 83.7522 233.813 83.6407 234.259 83.4176C234.706 83.1946 234.929 82.86 235.153 82.4139C235.376 81.9679 235.488 81.5218 235.488 80.9642C235.488 80.295 235.264 79.7374 234.929 79.2914C234.483 78.8453 234.036 78.6222 233.366 78.6222C232.92 78.6222 232.473 78.7338 232.026 78.9568C231.58 79.1798 231.356 79.5144 231.133 79.9605C230.91 80.4066 230.798 80.8526 230.798 81.4103C230.575 82.0794 230.798 82.637 231.245 83.0831ZM229.793 79.4029C230.128 78.8453 230.575 78.2877 231.245 77.9531C231.803 77.6185 232.473 77.3955 233.254 77.3955C233.924 77.3955 234.594 77.507 235.153 77.8416C235.711 78.1762 236.046 78.5107 236.381 79.0683C236.716 79.6259 236.828 80.1835 236.828 80.8526C236.828 81.6333 236.604 82.3024 236.269 82.86C235.934 83.4176 235.488 83.9752 234.818 84.3098C234.259 84.6444 233.478 84.8674 232.808 84.8674C232.138 84.8674 231.468 84.7559 231.021 84.4213C230.463 84.0867 230.128 83.7522 229.793 83.1946C229.458 82.637 229.346 82.0794 229.346 81.4103C229.235 80.7411 229.458 80.072 229.793 79.4029Z" fill="white" transform="matrix(1, 0, 0, 1, 1.4210854715202004e-14, 1.4210854715202004e-14)"></path><path d="M238.279 84.3104C237.721 83.9758 237.498 83.4182 237.386 82.7491H238.614C238.614 83.0837 238.837 83.4182 239.061 83.5297C239.284 83.6413 239.731 83.8643 240.177 83.8643C240.624 83.8643 240.959 83.7528 241.294 83.5297C241.517 83.3067 241.741 83.0837 241.741 82.7491C241.741 82.303 241.406 81.9685 240.847 81.8569L239.619 81.5224C239.061 81.4108 238.726 81.1878 238.391 80.8532C238.056 80.5187 237.944 80.1841 237.944 79.738C237.944 79.0689 238.167 78.5113 238.726 78.1767C239.284 77.7307 239.954 77.6191 240.736 77.6191C241.517 77.6191 242.076 77.8422 242.634 78.1767C243.08 78.6228 243.415 79.0689 243.415 79.738H242.076C242.076 79.4035 241.964 79.0689 241.629 78.9574C241.406 78.7344 241.071 78.6228 240.624 78.6228C240.177 78.6228 239.954 78.7343 239.619 78.8459C239.396 79.0689 239.284 79.292 239.284 79.6265C239.284 79.9611 239.396 80.1841 239.507 80.2956C239.731 80.4072 239.842 80.5187 240.177 80.5187L241.294 80.7417C241.852 80.8532 242.299 81.0763 242.634 81.4108C242.969 81.7454 243.08 82.1915 243.08 82.6376C243.08 83.3067 242.857 83.8643 242.299 84.3104C241.741 84.7565 241.071 84.9795 240.177 84.9795C239.507 84.9795 238.837 84.7565 238.279 84.3104Z" fill="white" transform="matrix(1, 0, 0, 1, 1.4210854715202004e-14, 1.4210854715202004e-14)"></path><path d="M255.475 74.2728C255.586 74.3844 255.698 74.6074 255.698 74.8304C255.698 75.165 255.586 75.3881 255.363 75.6111C255.14 75.8341 254.916 75.9457 254.581 75.9457C254.358 75.9457 254.135 75.8341 253.911 75.7226C253.8 75.6111 253.688 75.3881 253.688 75.165C253.688 74.8304 253.8 74.6074 254.023 74.3844C254.246 74.1613 254.47 74.0498 254.805 74.0498C255.14 74.0498 255.363 74.1613 255.475 74.2728ZM245.537 75.7226C245.425 75.6111 245.314 75.3881 245.314 75.165C245.314 74.8304 245.425 74.6074 245.649 74.3844C245.872 74.1613 246.095 74.0498 246.43 74.0498C246.654 74.0498 246.877 74.1613 247.1 74.2728C247.212 74.3844 247.323 74.6074 247.323 74.8304C247.323 75.165 247.212 75.3881 246.988 75.6111C246.765 75.8341 246.542 75.9457 246.207 75.9457C245.872 75.9457 245.76 75.9457 245.537 75.7226ZM250.785 77.73H254.916L253.911 84.7558H252.571L253.353 78.8452H250.45L249.668 84.7558H248.328L249.11 78.8452H246.207L245.649 84.7558H244.309L245.314 77.73H249.557L249.78 75.8341H251.12L250.785 77.73Z" fill="white" transform="matrix(1, 0, 0, 1, 1.4210854715202004e-14, 1.4210854715202004e-14)"></path><path d="M257.261 77.7295L258.601 83.3055L261.616 77.7295H263.067L259.159 84.7553H257.819L255.921 77.7295H257.261Z" fill="white" transform="matrix(1, 0, 0, 1, 1.4210854715202004e-14, 1.4210854715202004e-14)"></path><path d="M268.427 80.6294C268.427 79.9603 268.315 79.5142 267.98 79.1796C267.645 78.8451 267.087 78.622 266.529 78.622C265.859 78.622 265.412 78.8451 264.966 79.1796C264.519 79.5142 264.296 80.0718 264.184 80.7409H268.427V80.6294ZM268.315 84.3096C267.645 84.7557 266.864 84.9787 266.082 84.9787C265.412 84.9787 264.854 84.8672 264.296 84.5326C263.737 84.1981 263.402 83.8635 263.067 83.3059C262.844 82.7483 262.621 82.1907 262.621 81.5216C262.621 80.7409 262.732 80.0718 263.067 79.5142C263.402 78.9566 263.849 78.399 264.407 78.0644C264.966 77.7299 265.635 77.5068 266.305 77.5068C266.975 77.5068 267.534 77.6184 267.98 77.9529C268.427 78.176 268.874 78.622 269.097 79.0681C269.32 79.5142 269.544 80.0718 269.544 80.7409C269.544 81.0755 269.544 81.4101 269.432 81.6331H263.849C263.849 82.3022 263.961 82.8598 264.407 83.1944C264.854 83.529 265.3 83.752 265.97 83.752C266.417 83.752 266.864 83.6405 267.31 83.4174C267.645 83.1944 267.98 82.8598 268.204 82.5253H269.544C269.432 83.3059 268.985 83.8635 268.315 84.3096Z" fill="white" transform="matrix(1, 0, 0, 1, 1.4210854715202004e-14, 1.4210854715202004e-14)"></path><path d="M276.69 75.8343L276.243 78.9569H280.709L280.486 80.1836H276.02L275.573 83.4178H280.598L280.374 84.756H274.01L275.461 74.4961H281.826L281.603 75.8343H276.69Z" fill="white" transform="matrix(1, 0, 0, 1, 1.4210854715202004e-14, 1.4210854715202004e-14)"></path><path d="M287.967 78.0646C288.414 78.5107 288.525 79.0683 288.525 79.7374C288.525 79.9605 288.525 80.072 288.525 80.295L287.967 84.6444H286.627L287.186 80.6296C287.186 80.4066 287.186 80.295 287.186 80.072C287.186 79.0683 286.739 78.6222 285.846 78.6222C285.287 78.6222 284.841 78.8453 284.394 79.1798C284.059 79.5144 283.724 79.9605 283.724 80.5181L283.166 84.6444H281.826L282.831 77.6185H283.947V78.6222C284.171 78.2877 284.617 77.9531 284.952 77.7301C285.399 77.507 285.846 77.3955 286.404 77.3955C287.074 77.507 287.632 77.7301 287.967 78.0646Z" fill="white" transform="matrix(1, 0, 0, 1, 1.4210854715202004e-14, 1.4210854715202004e-14)"></path><path d="M295.448 80.6294C295.448 79.9603 295.337 79.5142 295.002 79.1796C294.667 78.8451 294.108 78.622 293.55 78.622C292.88 78.622 292.433 78.8451 291.987 79.1796C291.54 79.5142 291.317 80.0718 291.205 80.7409H295.448V80.6294ZM295.337 84.3096C294.667 84.7557 293.885 84.9787 293.103 84.9787C292.433 84.9787 291.875 84.8672 291.317 84.5326C290.759 84.1981 290.424 83.8635 290.089 83.3059C289.865 82.7483 289.642 82.1907 289.642 81.5216C289.642 80.7409 289.754 80.0718 290.089 79.5142C290.424 78.9566 290.87 78.399 291.429 78.0644C291.987 77.7299 292.657 77.5068 293.327 77.5068C293.997 77.5068 294.555 77.6184 295.002 77.9529C295.448 78.176 295.895 78.622 296.118 79.0681C296.342 79.5142 296.565 80.0718 296.565 80.7409C296.565 81.0755 296.565 81.4101 296.453 81.6331H290.87C290.87 82.3022 290.982 82.8598 291.429 83.1944C291.875 83.529 292.322 83.752 292.992 83.752C293.438 83.752 293.885 83.6405 294.332 83.4174C294.667 83.1944 295.002 82.8598 295.225 82.5253H296.565C296.453 83.3059 296.007 83.8635 295.337 84.3096Z" fill="white" transform="matrix(1, 0, 0, 1, 1.4210854715202004e-14, 1.4210854715202004e-14)"></path><path d="M302.483 77.7299L302.371 78.8451C302.148 78.8451 301.924 78.7336 301.701 78.7336C301.143 78.7336 300.585 78.9566 300.25 79.2912C299.915 79.6257 299.691 80.1833 299.58 80.8525L299.021 84.7557H297.681L298.686 77.7299H299.803V78.622C300.026 78.2875 300.25 78.0644 300.585 77.8414C300.92 77.6184 301.366 77.5068 301.701 77.5068C302.036 77.6184 302.259 77.6184 302.483 77.7299Z" fill="white" transform="matrix(1, 0, 0, 1, 1.4210854715202004e-14, 1.4210854715202004e-14)"></path><path d="M307.731 82.6368C308.177 82.1907 308.401 81.6331 308.401 80.8525C308.401 80.1833 308.177 79.7372 307.842 79.2912C307.396 78.8451 306.949 78.622 306.279 78.622C305.498 78.622 304.939 78.8451 304.493 79.2912C304.046 79.7372 303.823 80.2949 303.823 81.0755C303.823 81.7446 304.046 82.1907 304.381 82.6368C304.828 83.0829 305.274 83.1944 305.944 83.1944C306.726 83.3059 307.284 83.0829 307.731 82.6368ZM310.187 77.7299L309.182 85.0902C309.071 86.0939 308.624 86.8746 307.954 87.4322C307.284 87.9898 306.502 88.2128 305.386 88.2128C304.493 88.2128 303.711 87.9898 303.041 87.4322C302.483 86.9861 302.036 86.2055 302.036 85.4248H303.376C303.488 85.8709 303.711 86.317 304.046 86.54C304.381 86.8746 304.939 86.9861 305.498 86.9861C306.168 86.9861 306.726 86.7631 307.172 86.4285C307.619 86.0939 307.842 85.6478 307.954 84.9787L308.177 83.529C307.954 83.8635 307.507 84.0866 307.061 84.3096C306.614 84.5326 306.168 84.5326 305.609 84.5326C305.051 84.5326 304.493 84.4211 304.046 84.0866C303.599 83.752 303.153 83.4174 302.929 82.8598C302.706 82.4138 302.483 81.7446 302.483 81.187C302.483 80.4064 302.594 79.8488 302.929 79.2912C303.264 78.7336 303.711 78.2875 304.269 77.9529C304.828 77.6184 305.498 77.5068 306.168 77.5068C306.726 77.5068 307.284 77.6184 307.731 77.9529C308.177 78.176 308.512 78.622 308.847 79.0681L309.182 77.8414H310.187V77.7299Z" fill="white" transform="matrix(1, 0, 0, 1, 1.4210854715202004e-14, 1.4210854715202004e-14)"></path><path d="M318.115 77.7305L313.76 86.0945C313.425 86.6521 313.09 87.2097 312.644 87.5443C312.197 87.8789 311.639 87.9904 310.969 87.9904C310.634 87.9904 310.187 87.9904 309.852 87.8789L309.964 86.7637C309.964 86.7637 310.076 86.7637 310.299 86.8752C310.522 86.8752 310.634 86.8752 310.857 86.8752C311.304 86.8752 311.639 86.7636 311.862 86.6521C312.085 86.4291 312.309 86.206 312.532 85.8715L312.979 85.0908L311.08 77.842H312.42L313.872 83.6411L316.775 77.842H318.115V77.7305Z" fill="white" transform="matrix(1, 0, 0, 1, 1.4210854715202004e-14, 1.4210854715202004e-14)"></path></svg>