<svg width="125" height="49" viewBox="0 0 125 49" fill="none" xmlns="http://www.w3.org/2000/svg">
<path fill-rule="evenodd" clip-rule="evenodd" d="M99.9019 48.9997L124.133 24.4998L99.9019 0H86.1429L105.599 19.5849H79.4015C78.3408 19.5849 77.4445 19.2366 76.689 18.5321L62.4471 4.06943C59.7632 1.35914 56.5659 0 52.8687 0H24.2448L0 24.4998L24.2448 49H37.93L18.5474 29.4114H44.7449C45.8056 29.4114 46.7016 29.7634 47.444 30.4679L61.7637 44.9266C64.4458 47.6445 67.6128 48.9997 71.2668 48.9997H99.9019ZM79.3998 29.4155H105.597L95.8711 39.1774H71.2645C70.2603 39.1774 69.3513 38.7793 68.5672 37.9829L54.2591 23.5206C51.6564 20.9022 48.4875 19.5891 44.7429 19.5891H18.5454L28.2735 9.83121H52.8667C53.8818 9.83121 54.7777 10.2294 55.5791 11.0257L69.8836 25.4152C72.4766 28.0834 75.6552 29.4155 79.3998 29.4155Z" fill="white"/>
</svg>
