<svg width="95" height="51" viewBox="0 0 95 51" fill="none" xmlns="http://www.w3.org/2000/svg">
<path fill-rule="evenodd" clip-rule="evenodd" d="M21.0523 34.7647H21.4642C26.2269 34.7647 29.3852 36.4403 29.3852 39.4722C29.3852 42.103 26.1717 44.977 21.1615 44.977H20.482L20.481 42.1295L21.1772 42.0733C22.8166 41.8581 23.5853 41.3598 23.5436 39.7392C23.5085 38.3349 22.1474 37.8895 20.7788 37.8895H19.2199V50.2332H13.4442V36.8182C13.4442 36.8182 17.9177 36.1501 21.0523 34.7647ZM47.8354 41.9268V49.624C45.6057 50.1867 43.7425 50.4338 42.063 50.4338C35.949 50.4338 30.9106 47.2846 30.9106 42.1316C30.9106 37.363 35.3366 34.163 41.7219 34.1463C43.71 34.1409 48.2895 35.1047 49.8094 35.8711L46.803 38.3857C45.7705 38.0555 45.1041 37.4209 42.01 37.4301C39.3884 37.4398 36.6836 38.8933 36.6836 42.3117C36.6836 45.6635 39.596 47.1478 41.4852 47.1478C41.669 47.1478 41.9576 47.1257 42.2992 47.037V41.9262H47.8354V41.9268ZM67.8612 41.9268V49.624C65.6294 50.1867 63.7672 50.4338 62.0872 50.4338C55.9727 50.4338 50.9354 47.2846 50.9354 42.1316C50.9354 37.363 55.3613 34.163 61.7461 34.1463C63.7353 34.1409 68.3137 35.1047 69.8342 35.8711L66.8277 38.3857C65.7953 38.0555 65.131 37.4209 62.0359 37.4301C59.4143 37.4398 56.7089 38.8933 56.7089 42.3117C56.7089 45.6635 59.6218 47.1478 61.5115 47.1478C61.6942 47.1478 61.9834 47.1257 62.3256 47.037V41.9262H67.8612V41.9268ZM85.0741 36.2901C83.1093 32.5852 78.9277 34.8976 77.5796 36.1009V34.6744H72.4942V50.2327H77.5796V40.709C77.7633 37.7803 81.4287 38.0241 81.3055 40.71V50.2327H86.0882V40.8949C86.2719 37.9652 89.9384 38.2101 89.8152 40.8949V50.2327H95V39.1317C94.9989 31.8317 86.3082 34.509 85.0741 36.2901ZM25.822 31.3079C17.4972 35.6355 10.9167 37.1101 0 35.8679C12.787 34.4036 17.0529 31.2101 26.4247 28.3371C31.0993 26.9036 33.269 26.5847 35.2587 27.9009C32.5971 28.0123 30.3231 28.9674 25.822 31.3079ZM53.177 19.4199C69.731 17.821 78.3077 10.9994 86.5309 0C74.2401 10.3826 59.4207 14.2918 47.9765 17.8572C42.4787 19.5685 40.5165 22.5831 40.009 25.5226C42.3922 23.195 46.8657 20.0296 53.177 19.4199Z" fill="white"/>
<path fill-rule="evenodd" clip-rule="evenodd" d="M49.3804 32.0652C44.1501 32.4441 39.0247 30.4068 34.7026 26.2177C32.3486 23.9366 31.9075 23.9404 28.968 23.0474C34.0972 22.1544 35.4967 23.4993 39.815 26.7068C42.4572 28.2917 45.409 29.5225 48.335 30.0776C53.5155 30.5382 58.2971 28.982 63.4122 27.7506C63.4316 27.7501 55.2874 31.6387 49.3804 32.0652Z" fill="white"/>
</svg>
