<svg width="53" height="35" viewBox="0 0 53 35" fill="none" xmlns="http://www.w3.org/2000/svg">
<g clip-path="url(#clip0_204_429)">
<path d="M24.3966 20.9325H19.5432L15.6461 15.2447H15.5739V20.9325H11.6295V2.93994H15.5744V13.888H15.6465L19.4476 9.08043H24.2037L19.6139 14.4354L24.3966 20.9325Z" fill="white"/>
<path d="M24.6832 20.9324V9.08032H28.6042V20.9324H24.6832Z" fill="white"/>
<path d="M30.5643 29.5578V4.81592H34.557V29.5578H30.5643Z" fill="white"/>
<path d="M36.4935 29.5579V0H40.4862V29.5579H36.4935Z" fill="white"/>
<path d="M12.8828 34.7144V31.6681L18.4777 25.861H13.0978V22.8623H23.2609V25.7897L17.5002 31.6919H23.4984V34.7144H12.8828Z" fill="white"/>
<path d="M24.6931 34.7144V22.8623H28.6141V34.7144H24.6931Z" fill="white"/>
<path d="M30.5746 34.7143V16.7222H34.5672V34.7143H30.5746Z" fill="white"/>
<path d="M36.5039 34.7143V16.7222H40.4975V34.7143H36.5039Z" fill="white"/>
<path d="M42.2159 24.4809C42.9172 23.8143 43.7525 23.3033 44.6667 22.9816C45.5826 22.6511 46.5494 22.482 47.5236 22.4818C48.3873 22.4605 49.2483 22.5852 50.07 22.8506C50.7262 23.0712 51.3092 23.4662 51.7561 23.9928C52.2137 24.5647 52.5364 25.2317 52.7003 25.9444C52.9141 26.8612 53.0144 27.8006 52.9991 28.7417V34.7143H49.4143V33.4532H49.3427C49.0143 33.9666 48.5338 34.3657 47.9676 34.5954C47.3382 34.8684 46.6581 35.0063 45.9715 35.0001C45.4714 34.9973 44.9736 34.9333 44.4892 34.8094C43.9898 34.6875 43.5163 34.478 43.0907 34.1908C42.6595 33.8955 42.3033 33.5043 42.0505 33.0481C41.7638 32.5062 41.6239 31.8993 41.6445 31.2872C41.6086 30.5332 41.8606 29.7935 42.3498 29.2167C42.8495 28.6739 43.4726 28.2582 44.167 28.0046C44.9627 27.706 45.7947 27.5138 46.6413 27.433C47.5227 27.3393 48.4085 27.2917 49.2949 27.2903V27.1001C49.3131 26.8489 49.2654 26.5972 49.1564 26.3698C49.0475 26.1425 48.881 25.9472 48.6734 25.8031C48.2173 25.5136 47.6839 25.3683 47.1433 25.3863C46.5856 25.3863 46.0346 25.5082 45.5294 25.7434C45.0455 25.9594 44.5979 26.2484 44.2026 26.6003L42.2159 24.4809ZM49.4143 29.5515H48.9132C48.483 29.5515 48.0486 29.5712 47.6103 29.6107C47.2128 29.6426 46.8201 29.7185 46.4394 29.8368C46.1219 29.932 45.8306 30.0985 45.588 30.3235C45.4759 30.4332 45.3882 30.5651 45.3305 30.7106C45.2729 30.8561 45.2465 31.012 45.2531 31.1683C45.2471 31.3697 45.301 31.5684 45.4081 31.7394C45.5085 31.895 45.6436 32.0253 45.8029 32.1203C45.9729 32.2197 46.1592 32.2882 46.3532 32.3226C46.5501 32.3615 46.7502 32.3815 46.9508 32.3823C47.2841 32.4048 47.6184 32.3585 47.9327 32.2461C48.247 32.1338 48.5346 31.958 48.7774 31.7296C48.9952 31.4905 49.1633 31.2109 49.272 30.9068C49.3808 30.6028 49.428 30.2803 49.4111 29.958L49.4143 29.5515Z" fill="white"/>
<path d="M8.27241 12.322C7.93986 12.0115 7.56061 11.7546 7.14838 11.5607C6.72372 11.3559 6.25779 11.2502 5.78596 11.2516C5.43554 11.248 5.0886 11.3211 4.76964 11.4656C4.62411 11.5247 4.50075 11.6276 4.41679 11.7599C4.33283 11.8922 4.29246 12.0473 4.3013 12.2036C4.29842 12.3619 4.34702 12.517 4.43986 12.6456C4.53269 12.7742 4.6648 12.8695 4.81648 12.9173C5.35722 13.1184 5.91277 13.2776 6.47817 13.3933C6.93833 13.4927 7.38995 13.6279 7.82889 13.7975C8.27122 13.9658 8.68602 14.1985 9.0597 14.488C9.42477 14.7718 9.72613 15.1285 9.94441 15.5351C10.1778 15.9915 10.293 16.4987 10.2793 17.0107C10.3059 17.6313 10.1685 18.2481 9.8809 18.7994C9.59327 19.3507 9.16542 19.8172 8.64006 20.1525C8.13852 20.4764 7.58367 20.7099 7.00085 20.8425C6.40557 20.9842 5.79571 21.0561 5.18366 21.057C4.2123 21.0564 3.24746 20.8989 2.32675 20.5907C1.45678 20.3173 0.66099 19.8498 0 19.2238L2.20123 16.9151C2.56889 17.3089 3.00649 17.6317 3.49199 17.8671C3.99618 18.1197 4.55318 18.2502 5.11763 18.248C5.44564 18.246 5.76876 18.1686 6.06181 18.0219C6.21207 17.9522 6.3374 17.8386 6.42108 17.6961C6.50476 17.5537 6.54281 17.3892 6.53016 17.2247C6.53065 17.0471 6.47563 16.8739 6.37275 16.7288C6.26987 16.5838 6.12421 16.4743 5.95597 16.4153C5.37617 16.179 4.77591 15.9958 4.16267 15.868C3.73983 15.7704 3.32447 15.6431 2.91967 15.4871C2.51612 15.3352 2.14046 15.1182 1.80782 14.8447C1.47582 14.5687 1.20339 14.2287 1.00695 13.8451C0.788776 13.4011 0.682063 12.9111 0.695963 12.4171C0.6763 11.7802 0.833497 11.1502 1.15026 10.5965C1.44404 10.1063 1.84406 9.68757 2.32113 9.37086C2.80779 9.04994 3.34511 8.8126 3.9107 8.66874C4.47628 8.52017 5.05863 8.44418 5.64358 8.44263C6.53296 8.44229 7.41672 8.58299 8.26164 8.85942C9.06751 9.10998 9.80683 9.5369 10.4254 10.1089L8.27241 12.322Z" fill="white"/>
</g>
<defs>
<clipPath id="clip0_204_429">
<rect width="53" height="35" fill="white"/>
</clipPath>
</defs>
</svg>
