<svg width="51" height="51" viewBox="0 0 51 51" fill="none" xmlns="http://www.w3.org/2000/svg">
<path d="M51 51H0V0H51V51ZM46.1611 21.0615C44.9155 20.5783 43.3241 20.6157 42.1035 21.1572C41.4578 21.4444 40.8884 21.8447 40.4111 22.3467C39.934 22.8502 39.5576 23.4461 39.2939 24.1182C39.0291 24.7888 38.8945 25.5161 38.8945 26.2793C38.8945 26.8875 39.0021 27.4444 39.2129 27.9336C39.4245 28.4277 39.7266 28.8547 40.1094 29.2021C40.4887 29.5476 40.9539 29.8168 41.4912 30.002C42.019 30.184 42.6115 30.2763 43.251 30.2764C43.8502 30.2764 44.4384 30.2043 44.998 30.0635C45.5563 29.9225 46.0693 29.7324 46.5215 29.498L46.6543 29.4287L47.4775 24.6895H43.376L43.1992 25.6533L43.0205 26.626L43.0088 26.6895H44.668L44.4814 27.7734C44.3676 27.8179 44.2493 27.8503 44.1289 27.8711C43.9432 27.904 43.7354 27.9254 43.5117 27.9336C43.1933 27.9331 42.9075 27.8856 42.6641 27.792C42.4241 27.6987 42.2224 27.5689 42.0635 27.4062C41.9027 27.2419 41.7807 27.0447 41.7002 26.8203C41.6163 26.5845 41.5732 26.326 41.5732 26.0518C41.5732 25.65 41.6413 25.2638 41.7764 24.9043C41.9102 24.5448 42.0982 24.224 42.334 23.9521C42.5647 23.6852 42.8468 23.4668 43.1631 23.3105C43.7596 23.0173 44.6062 23.0006 45.0889 23.2734C45.3237 23.4069 45.5102 23.5718 45.6426 23.7637L45.8379 24.0469L47.749 22.3242L47.584 22.1035C47.2379 21.6426 46.7589 21.2918 46.1611 21.0615ZM3.39648 23.207L3.38477 23.2695H5.76172L4.58496 29.9854L4.57422 30.0479H7.17773L8.37793 23.2695H10.7061L11.1016 21.0137L11.1113 20.9512H3.80566L3.39648 23.207ZM10.2812 30.0479H12.8984L14.5049 20.9512H11.8877L10.2812 30.0479ZM14.0605 30.0479H16.5469L17.3496 25.2646L18.2275 30.0049L18.2363 30.0479H20.0703L22.6221 25.3428L21.7715 29.9854L21.7598 30.0479H24.3301L25.9365 20.9512H22.4307L19.8525 25.9023L18.9756 20.9951L18.9678 20.9512H15.666L14.0605 30.0479ZM25.4932 30.0479H28.1104L29.7158 20.9512H27.0996L25.4932 30.0479ZM29.2715 30.0479H31.8545L32.6914 25.1289L34.7188 30.0156L34.7324 30.0479H37.4062L39.0127 20.9512H36.4316L35.5977 25.8174L33.5898 20.9844L33.5762 20.9512H30.8779L29.2715 30.0479Z" fill="white"/>
</svg>
