<svg width="60" height="34" viewBox="0 0 60 34" fill="none" xmlns="http://www.w3.org/2000/svg">
<path fill-rule="evenodd" clip-rule="evenodd" d="M32.5124 17.0485L28.5856 19.2886L21.6749 15.3507L19.5862 15.5629L20.8155 13.8887C20.8155 11.0827 20.8155 8.57139 20.8155 5.76535V5.7064H22.5581V5.76535C22.5581 8.5596 22.5581 11.0709 22.5581 13.8769L28.5856 17.3078L30.2924 16.3293L28.144 15.1031L24.2769 12.8984V8.47707C24.2769 6.56708 24.2769 4.95184 24.2769 3.05363V2.99468H26.0075V3.05363C26.0075 4.96363 26.0075 6.57887 26.0075 8.48886V11.908L28.9556 13.594L32.035 15.3507L33.7417 14.3721L31.653 13.1813L27.7262 10.9412V10.446C27.7262 6.8972 27.7262 3.63135 27.7262 0.0707412V0H29.4569V0.0589504C29.4569 3.44271 29.4569 6.5435 29.4569 9.93904L32.4885 11.6604L34.613 12.8748V6.99152L31.1517 5.03437V3.05363L33.1569 4.19727C33.4195 3.9261 33.6104 3.58419 33.7059 3.21869C33.8611 2.62919 33.7775 2.00432 33.4672 1.48555L33.4314 1.4266L34.9353 0.565923L34.9711 0.624873C35.5082 1.5445 35.6514 2.64098 35.3769 3.66672C35.2337 4.17369 35.0069 4.65708 34.6727 5.06974L36.3079 6.00115V7.87578C36.833 7.80504 37.3821 7.84041 37.8953 7.98189L37.955 7.99368C38.9695 8.27664 39.8289 8.93689 40.354 9.84472L40.3898 9.90367L38.886 10.7643L38.8502 10.7054C38.5518 10.1866 38.0624 9.80935 37.4776 9.64429L37.4537 9.6325C37.0837 9.53818 36.6898 9.52639 36.3198 9.62071V14.8555L32.5124 17.0485Z" fill="white"/>
<path d="M7.31649 23.6982V25.5493H4.63099V33.5194H2.67356V25.5493H0V23.6982H7.31649ZM9.26199 27.7069C9.42908 27.2588 9.71554 26.9169 10.1094 26.6929C10.5033 26.4689 10.9449 26.351 11.4223 26.351V28.3671C10.8613 28.2964 10.3601 28.4143 9.91844 28.709C9.47683 29.0038 9.26199 29.4754 9.26199 30.1592V33.5076H7.42391V26.4925H9.26199V27.7069ZM17.6169 26.4925H19.4549V33.5076H17.6169V32.6823C17.0678 33.3661 16.292 33.708 15.3014 33.708C14.3585 33.708 13.5468 33.3543 12.8665 32.6351C12.1862 31.9159 11.852 31.0435 11.852 30.0059C11.852 28.9684 12.1862 28.0959 12.8665 27.3768C13.5468 26.6576 14.3585 26.3039 15.3014 26.3039C16.292 26.3039 17.0678 26.6458 17.6169 27.3296V26.4925ZM14.2272 31.4325C14.5972 31.798 15.0627 31.9867 15.6356 31.9867C16.2085 31.9867 16.674 31.798 17.044 31.4325C17.414 31.067 17.6049 30.5837 17.6049 30.0059C17.6049 29.4282 17.414 28.9566 17.044 28.5793C16.674 28.2138 16.1965 28.0252 15.6356 28.0252C15.0746 28.0252 14.5972 28.2138 14.2272 28.5793C13.8572 28.9448 13.6781 29.4282 13.6781 30.0059C13.6781 30.5837 13.8572 31.0553 14.2272 31.4325ZM24.4917 33.708C23.4175 33.708 22.5343 33.3543 21.8182 32.6469C21.1021 31.9395 20.744 31.0553 20.744 30.0059C20.744 28.9566 21.1021 28.0842 21.8182 27.365C22.5343 26.6576 23.4295 26.3039 24.4917 26.3039C25.184 26.3039 25.8166 26.4689 26.3776 26.799C26.9505 27.1292 27.3801 27.5654 27.6666 28.1195L26.0911 29.0274C25.9479 28.7326 25.733 28.5086 25.4466 28.3435C25.1601 28.1785 24.8379 28.0959 24.4679 28.0959C23.9188 28.0959 23.4653 28.2728 23.1072 28.6383C22.7492 29.0038 22.5701 29.4636 22.5701 30.0177C22.5701 30.5719 22.7492 31.0199 23.1072 31.3854C23.4653 31.7509 23.9188 31.9277 24.4679 31.9277C24.8379 31.9277 25.1721 31.8452 25.4585 31.6801C25.745 31.5151 25.9598 31.2911 26.103 30.9963L27.6905 31.8924C27.3801 32.4465 26.9385 32.8827 26.3656 33.2128C25.8047 33.543 25.184 33.708 24.4917 33.708ZM35.2099 33.5194H33.0734L30.4834 30.3361V33.5194H28.6453V23.6982H30.4834V29.5933L32.9302 26.4925H35.1144L32.2618 29.9588L35.2099 33.5194Z" fill="white"/>
<path d="M42.216 28.4261C43.0873 28.9213 43.517 29.6758 43.517 30.6662C43.517 31.5033 43.2186 32.1871 42.6218 32.7177C42.025 33.2482 41.2969 33.5194 40.4257 33.5194H36.2124V23.6982H40.1273C40.9747 23.6982 41.7028 23.9576 42.2757 24.4764C42.8605 24.9952 43.147 25.6554 43.147 26.4571C43.147 27.2706 42.8366 27.9191 42.216 28.4261ZM40.1273 25.5021H38.1698V27.6597H40.1273C40.4257 27.6597 40.6882 27.5536 40.8911 27.3532C41.094 27.1527 41.2015 26.8934 41.2015 26.5868C41.2015 26.2803 41.106 26.0209 40.9031 25.8205C40.6882 25.6082 40.4376 25.5021 40.1273 25.5021ZM40.4257 31.7037C40.7598 31.7037 41.0344 31.5976 41.2492 31.3736C41.464 31.1496 41.5715 30.8784 41.5715 30.5365C41.5715 30.2064 41.464 29.9352 41.2492 29.7112C41.0344 29.4872 40.7598 29.3811 40.4257 29.3811H38.1698V31.6919H40.4257V31.7037ZM46.3696 30.7487C46.6202 31.633 47.2886 32.0692 48.3747 32.0692C49.0789 32.0692 49.6041 31.8334 49.9622 31.3736L51.4422 32.2107C50.738 33.2128 49.7115 33.708 48.3509 33.708C47.1812 33.708 46.2383 33.3543 45.5221 32.6587C44.8179 31.9631 44.4599 31.0788 44.4599 30.0059C44.4599 28.9448 44.806 28.0724 45.5102 27.365C46.2144 26.6576 47.1096 26.3039 48.2076 26.3039C49.246 26.3039 50.1054 26.6576 50.7857 27.365C51.466 28.0724 51.8002 28.9566 51.8002 30.0059C51.8002 30.2417 51.7764 30.4893 51.7286 30.7487H46.3696ZM46.3457 29.3457H49.9622C49.8547 28.8741 49.6399 28.5086 49.3176 28.2846C48.9954 28.0488 48.6254 27.9309 48.2076 27.9309C47.7183 27.9309 47.3125 28.0488 46.9902 28.3082C46.6679 28.544 46.4531 28.8977 46.3457 29.3457ZM54.5693 30.7487C54.8199 31.633 55.4883 32.0692 56.5744 32.0692C57.2786 32.0692 57.8038 31.8334 58.1619 31.3736L59.6419 32.2107C58.9377 33.2128 57.9112 33.708 56.5506 33.708C55.3809 33.708 54.438 33.3543 53.7219 32.6587C53.0177 31.9631 52.6596 31.0788 52.6596 30.0059C52.6596 28.9448 53.0057 28.0724 53.7099 27.365C54.4141 26.6576 55.3093 26.3039 56.4073 26.3039C57.4457 26.3039 58.3051 26.6576 58.9854 27.365C59.6658 28.0724 60 28.9566 60 30.0059C60 30.2417 59.9761 30.4893 59.9283 30.7487H54.5693ZM54.5454 29.3457H58.1619C58.0545 28.8741 57.8396 28.5086 57.5174 28.2846C57.1951 28.0488 56.8251 27.9309 56.4073 27.9309C55.918 27.9309 55.5122 28.0488 55.1899 28.3082C54.8557 28.544 54.6409 28.8977 54.5454 29.3457Z" fill="white"/>
</svg>
