<svg width="52" height="51" viewBox="0 0 52 51" fill="none" xmlns="http://www.w3.org/2000/svg">
<g clip-path="url(#clip0_202_75)">
<path fill-rule="evenodd" clip-rule="evenodd" d="M25.9903 0.758057C12.0523 0.758057 0.75354 11.84 0.75354 25.5095C0.75354 39.1793 12.0525 50.261 25.9903 50.261C39.9276 50.261 51.2271 39.1793 51.2271 25.5095C51.2271 11.8403 39.9276 0.758057 25.9903 0.758057ZM25.9903 48.0418C13.3019 48.0418 3.01625 37.9539 3.01625 25.5095C3.01625 13.0656 13.3019 2.97752 25.9903 2.97752C38.6782 2.97752 48.9644 13.0656 48.9644 25.5095C48.9644 37.9539 38.6782 48.0418 25.9903 48.0418Z" fill="white"/>
<path fill-rule="evenodd" clip-rule="evenodd" d="M20.9604 8.67522C22.5944 8.20736 24.2881 7.97062 25.9903 7.97218C27.7345 7.97218 29.4207 8.21719 31.0146 8.67389L25.9903 19.5966L20.9604 8.67522Z" fill="white"/>
<path fill-rule="evenodd" clip-rule="evenodd" d="M35.5889 10.7102C37.4718 11.8883 39.1147 13.4 40.4334 15.1679L32.1871 33.0654L29.0049 26.1258H22.9757L19.7938 33.0652L11.5594 15.1512C12.8757 13.3903 14.514 11.8845 16.391 10.7105L22.9757 25.0375H29.0255L35.5889 10.7102ZM8.71312 20.9706C8.31058 22.4512 8.10733 23.9772 8.10853 25.5095C8.10853 32.3825 12.1389 38.3315 18.0081 41.208L8.71312 20.9706Z" fill="white"/>
<path fill-rule="evenodd" clip-rule="evenodd" d="M21.0435 42.3678C22.6518 42.8203 24.317 43.0491 25.9903 43.0475C27.7045 43.0475 29.3621 42.8107 30.9312 42.3696L25.9903 31.6076L21.0435 42.3678ZM33.9717 41.208C39.8412 38.3316 43.8716 32.3826 43.8716 25.5096C43.8716 23.9538 43.6649 22.4453 43.2778 21.009L33.9717 41.208Z" fill="white"/>
</g>
<defs>
<clipPath id="clip0_202_75">
<rect width="52" height="51" fill="white"/>
</clipPath>
</defs>
</svg>
