<svg width="36" height="43" viewBox="0 0 36 43" fill="none" xmlns="http://www.w3.org/2000/svg">
<path d="M35.276 7.6347V9.54448C35.276 14.9869 32.5427 19.8331 28.3158 22.901C25.2641 20.6729 21.5456 19.467 17.6356 19.467C13.7257 19.467 9.92082 20.7521 6.9554 22.907C6.32937 22.4572 5.73472 21.9596 5.16988 21.4216C3.89271 20.2007 2.82107 18.808 1.9895 17.2837C0.768816 15.0362 1.69139 12.2717 4.05118 11.1091C6.41096 9.94646 9.31362 10.8251 10.5343 13.0727C10.9093 13.7615 11.391 14.3922 11.9699 14.9436C13.4825 16.3841 15.4939 17.1761 17.6388 17.1761C22.0602 17.1761 25.6564 13.7511 25.6564 9.54448V7.6347C25.6564 5.10476 27.8059 3.05151 30.4622 3.05151C33.1186 3.05151 35.2744 5.10326 35.2744 7.6347H35.276Z" fill="#4BEE19"/>
<path d="M28.3143 22.9011C25.3442 25.056 21.646 26.3351 17.6403 26.3351C13.6347 26.3351 10.0134 25.1337 6.95541 22.9056C9.92083 20.7507 13.6237 19.4656 17.6356 19.4656C21.6476 19.4656 25.2626 20.6715 28.3159 22.8996L28.3143 22.9011Z" fill="#00BC7D"/>
<path d="M35.265 36.2634V38.1687C35.265 40.6941 33.1154 42.7459 30.4591 42.7459C27.8028 42.7459 25.647 40.6941 25.647 38.1687V36.2634C25.647 34.2206 24.8154 32.3018 23.3029 30.8598C21.7903 29.4177 19.7789 28.6272 17.6341 28.6272C13.2126 28.6272 9.61643 32.0523 9.61643 36.2634V38.1687C9.61643 40.6941 7.4669 42.7459 4.81057 42.7459C2.15424 42.7459 0 40.6941 0 38.1687V36.2634C0 30.8209 2.73321 25.9747 6.9554 22.9068C10.0118 25.1349 13.7319 26.3364 17.6403 26.3364C21.5487 26.3364 25.3441 25.0557 28.3143 22.9023C28.9403 23.3521 29.5397 23.8498 30.1045 24.3877C33.4339 27.5588 35.265 31.7743 35.265 36.2649V36.2634Z" fill="#007D8A"/>
<path d="M4.81376 9.16039C7.4697 9.16039 9.62276 7.10977 9.62276 4.58019C9.62276 2.05062 7.4697 0 4.81376 0C2.15782 0 0.00476074 2.05062 0.00476074 4.58019C0.00476074 7.10977 2.15782 9.16039 4.81376 9.16039Z" fill="#4BEE19"/>
</svg>
